<svg xmlns="http://www.w3.org/2000/svg" viewBox="0 0 57.88 41.48"><defs><style>.cls-1{fill:#001c38;}.cls-2{fill:#fff;}</style></defs><title>Varlık 5</title><g id="katman_2" data-name="katman 2"><g id="Layer_1" data-name="Layer 1"><path class="cls-1" d="M16.23,41.48H10.29V5.94H5.77L10.52,0h5.71Zm-5.08-.85h4.22V.86H10.93L7.55,5.08h3.6Z"/><rect class="cls-1" x="15.94" y="11.96" width="4.86" height="0.86"/><path class="cls-2" d="M21.46,12.39a1.13,1.13,0,1,1-1.13-1.12A1.13,1.13,0,0,1,21.46,12.39Z"/><path class="cls-1" d="M20.33,13.94a1.55,1.55,0,1,1,1.56-1.55A1.56,1.56,0,0,1,20.33,13.94Zm0-2.24a.69.69,0,1,0,.7.69A.69.69,0,0,0,20.33,11.7Z"/><rect class="cls-1" x="15.56" y="25.4" width="3.46" height="0.86"/><path class="cls-2" d="M20.75,25.83a1.13,1.13,0,0,1-2.25,0,1.13,1.13,0,1,1,2.25,0Z"/><path class="cls-1" d="M19.63,27.38a1.55,1.55,0,1,1,1.55-1.55A1.55,1.55,0,0,1,19.63,27.38Zm0-2.25a.71.71,0,0,0-.7.7.7.7,0,0,0,.7.69.69.69,0,0,0,.69-.69A.7.7,0,0,0,19.63,25.13Z"/><rect class="cls-1" x="1.69" y="30.38" width="8.84" height="0.86"/><path class="cls-2" d="M.43,30.81a1.12,1.12,0,1,1,1.12,1.12A1.12,1.12,0,0,1,.43,30.81Z"/><path class="cls-1" d="M1.55,32.36A1.55,1.55,0,1,1,3.1,30.81,1.56,1.56,0,0,1,1.55,32.36Zm0-2.24a.69.69,0,1,0,.69.69A.69.69,0,0,0,1.55,30.12Z"/><rect class="cls-1" x="5.08" y="18.42" width="5.68" height="0.86"/><path class="cls-2" d="M3.81,18.85A1.13,1.13,0,1,1,4.94,20,1.13,1.13,0,0,1,3.81,18.85Z"/><path class="cls-1" d="M4.94,20.4a1.55,1.55,0,1,1,1.55-1.55A1.55,1.55,0,0,1,4.94,20.4Zm0-2.24a.69.69,0,1,0,.69.69A.69.69,0,0,0,4.94,18.16Z"/><rect class="cls-1" x="2.52" y="3.11" width="5.68" height="0.86"/><path class="cls-2" d="M1.26,3.54A1.12,1.12,0,1,1,2.38,4.67,1.12,1.12,0,0,1,1.26,3.54Z"/><path class="cls-1" d="M2.38,5.1A1.56,1.56,0,1,1,3.93,3.54,1.56,1.56,0,0,1,2.38,5.1Zm0-2.25a.7.7,0,1,0,.69.69A.69.69,0,0,0,2.38,2.85Z"/><path class="cls-1" d="M38.86,41.48H34.09a7.92,7.92,0,0,1-8.2-8.19V31.48h5.94v1.91A2,2,0,0,0,34,35.55h5a2,2,0,0,0,2.16-2.16V28.13h-7a7.93,7.93,0,0,1-8.2-8.2V8.2A7.93,7.93,0,0,1,34.09,0h4.77a7.93,7.93,0,0,1,8.2,8.2V33.29A7.92,7.92,0,0,1,38.86,41.48ZM26.75,32.34v.95a7.1,7.1,0,0,0,7.34,7.34h4.77a7.1,7.1,0,0,0,7.34-7.34V8.2A7.1,7.1,0,0,0,38.86.86H34.09A7.1,7.1,0,0,0,26.75,8.2V19.93a7.1,7.1,0,0,0,7.34,7.34H42v6.12a2.92,2.92,0,0,1-3,3H34a2.92,2.92,0,0,1-3-3v-1ZM39,23.05H34a2.92,2.92,0,0,1-3-3V8.1a2.92,2.92,0,0,1,3-3h5a2.92,2.92,0,0,1,3,3V20A2.92,2.92,0,0,1,39,23.05ZM34,5.94A2,2,0,0,0,31.83,8.1V20A2,2,0,0,0,34,22.19h5A2,2,0,0,0,41.12,20V8.1A2,2,0,0,0,39,5.94Z"/><rect class="cls-1" x="45.93" y="4.5" width="6.25" height="0.86"/><path class="cls-2" d="M53.44,4.93A1.12,1.12,0,1,1,52.32,3.8,1.12,1.12,0,0,1,53.44,4.93Z"/><path class="cls-1" d="M52.32,6.48a1.55,1.55,0,1,1,1.55-1.55A1.56,1.56,0,0,1,52.32,6.48Zm0-2.25a.7.7,0,0,0-.69.7.69.69,0,1,0,1.38,0A.7.7,0,0,0,52.32,4.23Z"/><rect class="cls-1" x="46.26" y="33.99" width="9.93" height="0.86"/><path class="cls-2" d="M57.45,34.42a1.12,1.12,0,1,1-1.12-1.12A1.12,1.12,0,0,1,57.45,34.42Z"/><path class="cls-1" d="M56.33,36a1.55,1.55,0,1,1,1.55-1.55A1.54,1.54,0,0,1,56.33,36Zm0-2.24a.69.69,0,0,0-.69.69.69.69,0,1,0,1.38,0A.69.69,0,0,0,56.33,33.73Z"/><rect class="cls-1" x="21.06" y="33.11" width="5.68" height="0.86"/><path class="cls-2" d="M19.8,33.54a1.12,1.12,0,1,1,1.12,1.13A1.12,1.12,0,0,1,19.8,33.54Z"/><path class="cls-1" d="M20.92,35.1a1.56,1.56,0,1,1,1.55-1.56A1.56,1.56,0,0,1,20.92,35.1Zm0-2.25a.7.7,0,1,0,.69.69A.69.69,0,0,0,20.92,32.85Z"/><rect class="cls-1" x="46.26" y="19.78" width="5.68" height="0.86"/><path class="cls-2" d="M53.2,20.21a1.12,1.12,0,1,1-1.12-1.12A1.12,1.12,0,0,1,53.2,20.21Z"/><path class="cls-1" d="M52.08,18.66a1.55,1.55,0,1,1-1.55,1.55A1.56,1.56,0,0,1,52.08,18.66Zm0,2.24a.69.69,0,1,0-.69-.69A.69.69,0,0,0,52.08,20.9Z"/><rect class="cls-1" x="20.94" y="5.61" width="5.68" height="0.86"/><path class="cls-2" d="M19.67,6a1.13,1.13,0,1,1,2.25,0,1.13,1.13,0,0,1-2.25,0Z"/><path class="cls-1" d="M20.8,7.59A1.56,1.56,0,1,1,22.35,6,1.56,1.56,0,0,1,20.8,7.59Zm0-2.25a.7.7,0,1,0,.69.7A.7.7,0,0,0,20.8,5.34Z"/></g></g></svg>