<svg xmlns="http://www.w3.org/2000/svg" viewBox="0 0 425.24 440.64"><defs><style>.cls-1{fill:none;}.cls-2,.cls-3{fill:#e0e0e0;}.cls-16,.cls-17,.cls-3,.cls-4,.cls-5{fill-rule:evenodd;}.cls-4,.cls-6{fill:#ebebeb;}.cls-5,.cls-7{fill:#f5f5f5;}.cls-8{fill:#fafafa;}.cls-9{fill:#263238;}.cls-10,.cls-17{fill:#455a64;}.cls-11,.cls-16{fill:#e8505b;}.cls-12{fill:#fff;}.cls-13{opacity:0.3;}.cls-14{opacity:0.8;}.cls-15{opacity:0.6;}</style></defs><title>Varlık 1</title><g id="katman_2" data-name="katman 2"><g id="Background_Complete" data-name="Background Complete"><path class="cls-1" d="M335.85,209.14a21.78,21.78,0,0,1,2.12-5.37l-2.92-4.47,6.15-6.36,4.57,2.78a21.6,21.6,0,0,1,5.3-2.3l1.09-5.23L361,188l1.27,5.2a21.56,21.56,0,0,1,5.36,2.12l4.48-2.93,6.36,6.16-2.78,4.57a21.53,21.53,0,0,1,2.3,5.29l5.23,1.1.15,8.85-5.2,1.27a21.87,21.87,0,0,1-2.12,5.36l2.93,4.48-6.16,6.36-4.57-2.78a21.91,21.91,0,0,1-5.29,2.3l-1.1,5.23-8.85.14-1.27-5.19a21.87,21.87,0,0,1-5.36-2.12l-4.48,2.92-6.36-6.15,2.78-4.57a22,22,0,0,1-2.3-5.3l-5.23-1.09-.14-8.85,5.19-1.27Zm11.67,5a9.49,9.49,0,1,0,9.34-9.65A9.48,9.48,0,0,0,347.52,214.16Z"/><path class="cls-2" d="M347.52,214.16a7.24,7.24,0,0,1,.16-2.35A9.44,9.44,0,0,1,351,206.4a9.57,9.57,0,0,1,4-1.91,9.8,9.8,0,0,1,5.12.31,9.78,9.78,0,0,1,4.59,3.31,9.68,9.68,0,0,1,.18,11.52,8.82,8.82,0,0,1-2,2.1,9.25,9.25,0,0,1-2.45,1.36,9.72,9.72,0,0,1-5.1.48,9.6,9.6,0,0,1-7.62-7.08,7,7,0,0,1-.23-2.33,21.12,21.12,0,0,0,.43,2.28,9.5,9.5,0,0,0,3.55,5.05,9.28,9.28,0,0,0,8.8,1.15,8.88,8.88,0,0,0,2.32-1.3,8.7,8.7,0,0,0,1.92-2,9.22,9.22,0,0,0-.18-10.92,8.88,8.88,0,0,0-2-1.94,8.69,8.69,0,0,0-2.36-1.22,9.29,9.29,0,0,0-4.87-.34,9.12,9.12,0,0,0-3.89,1.77,9.48,9.48,0,0,0-3.39,5.17A20.37,20.37,0,0,0,347.52,214.16Z"/><path class="cls-2" d="M335.85,209.14a1.31,1.31,0,0,1-.32.1l-1,.26-3.87,1,.06-.08c.05,2.26.11,5.24.19,8.84l-.1-.12,5.24,1.07.09,0,0,.09a21.81,21.81,0,0,0,2.3,5.25l0,.09,0,.08-2.77,4.58,0-.23,6.37,6.15-.25,0,4.47-2.93.11-.08.11.07a22,22,0,0,0,5.32,2.09l.13,0,0,.14c.4,1.61.83,3.38,1.28,5.19l-.23-.18,8.85-.15-.24.19c.34-1.63.72-3.42,1.09-5.24l0-.14.15,0a21.48,21.48,0,0,0,5.23-2.28l.13-.08.13.08,4.57,2.78-.31,0,6.15-6.36,0,.32c-.93-1.41-1.92-2.94-2.93-4.48l-.08-.13.07-.14a21.33,21.33,0,0,0,2.1-5.29h0l0-.15.15,0,5.2-1.26-.2.25c-.05-3-.1-5.94-.14-8.85l.2.25L378,208.7l-.16,0,0-.15a21.38,21.38,0,0,0-2.26-5.23l-.08-.13.08-.13,2.78-4.57,0,.31L372,192.61l.29,0-4.48,2.93-.12.07-.12-.07a21.44,21.44,0,0,0-5.31-2.1l-.13,0,0-.13-1.26-5.2.22.17-8.85.13.19-.16c-.39,1.84-.76,3.56-1.11,5.23l0,.11-.11,0a21.68,21.68,0,0,0-5.26,2.26l-.09.06-.09-.06-4.56-2.79.19,0-6.18,6.34v-.15l2.9,4.5,0,0,0,0a22.2,22.2,0,0,0-1.77,4c-.14.44-.24.78-.32,1s-.11.34-.11.34,0-.12.07-.35.14-.58.28-1a20.87,20.87,0,0,1,1.7-4v.09c-.8-1.22-1.77-2.68-2.95-4.46l-.05-.08.06-.06,6.13-6.39.09-.09.1.07,4.58,2.76h-.18a21.83,21.83,0,0,1,5.34-2.33l-.14.14c.35-1.66.71-3.39,1.09-5.23l0-.16h.16l8.85-.16h.17l0,.17c.42,1.69.84,3.41,1.28,5.19l-.17-.16a21.76,21.76,0,0,1,5.43,2.14h-.24l4.47-2.94.16-.1.14.13,6.36,6.15.15.14-.11.17-2.77,4.57V203a21.46,21.46,0,0,1,2.32,5.35l-.19-.18,5.24,1.1.2,0v.21q.08,4.37.15,8.84v.21l-.2.05-5.2,1.27.19-.19h0a22.28,22.28,0,0,1-2.14,5.43v-.27l2.92,4.48.12.17-.15.15L373,236.05l-.14.14-.17-.1-4.57-2.79h.26a21.71,21.71,0,0,1-5.36,2.32l.18-.18c-.38,1.81-.76,3.6-1.1,5.23l0,.19h-.2L353,241h-.18l0-.18c-.43-1.81-.86-3.59-1.25-5.2l.16.17a22.31,22.31,0,0,1-5.42-2.16h.23L342,236.54l-.14.09-.11-.11-6.35-6.17-.1-.1.07-.13,2.79-4.56v.17a21.94,21.94,0,0,1-2.29-5.34l.11.11-5.23-1.11-.1,0v-.1c0-3.61-.07-6.59-.1-8.85v-.07h.07l3.86-.9,1-.22Z"/><path class="cls-3" d="M77,184.73a24.21,24.21,0,0,1,2.37-6l-3.27-5L83,166.61l5.12,3.11a24.29,24.29,0,0,1,5.92-2.57l1.22-5.85,9.9-.16,1.42,5.81a24.21,24.21,0,0,1,6,2.37l5-3.27,7.11,6.88-3.11,5.12a24.29,24.29,0,0,1,2.57,5.92l5.85,1.22.16,9.9-5.81,1.42a24.21,24.21,0,0,1-2.37,6l3.27,5-6.88,7.11-5.12-3.11a24.46,24.46,0,0,1-5.92,2.57l-1.22,5.85-9.9.16-1.42-5.81a24.21,24.21,0,0,1-6-2.37l-5,3.27-7.11-6.88,3.11-5.12a24.46,24.46,0,0,1-2.57-5.92l-5.85-1.22-.16-9.9L77,184.73Zm13,5.61a10.62,10.62,0,1,0,10.45-10.79A10.63,10.63,0,0,0,90.07,190.34Z"/><path class="cls-3" d="M305.09,159.16a7,7,0,0,1,.68-1.73l-.94-1.45,2-2,1.47.9a7.28,7.28,0,0,1,1.71-.75l.35-1.69,2.86,0,.41,1.67a7.44,7.44,0,0,1,1.73.69l1.45-.94,2.05,2-.89,1.48a7.69,7.69,0,0,1,.74,1.71l1.69.35,0,2.86-1.67.41a7.44,7.44,0,0,1-.69,1.73l.95,1.45-2,2-1.48-.9a6.86,6.86,0,0,1-1.71.74l-.35,1.69-2.86.05-.41-1.68a7,7,0,0,1-1.73-.68L307,168,305,166l.9-1.48a6.86,6.86,0,0,1-.74-1.71l-1.69-.35,0-2.86,1.68-.41Zm3.76,1.62a3.07,3.07,0,1,0,3-3.12A3.07,3.07,0,0,0,308.85,160.78Z"/><path class="cls-4" d="M11.2,188.74a9.54,9.54,0,0,1,1-2.39l-1.31-2,2.75-2.84,2.05,1.24a9.36,9.36,0,0,1,2.36-1l.49-2.34,4-.07.57,2.32a10.37,10.37,0,0,1,2.39,1l2-1.3L30.26,184l-1.24,2a9.81,9.81,0,0,1,1,2.37l2.34.49.07,3.95-2.33.57a9.61,9.61,0,0,1-.95,2.4l1.31,2-2.75,2.84-2-1.24a9.43,9.43,0,0,1-2.37,1l-.49,2.34-3.95.07-.57-2.32a10,10,0,0,1-2.4-.95l-2,1.31-2.84-2.76,1.24-2a9.67,9.67,0,0,1-1-2.37l-2.34-.49-.06-3.95,2.32-.57ZM16.42,191a4.24,4.24,0,1,0,4.17-4.31A4.24,4.24,0,0,0,16.42,191Z"/><path class="cls-4" d="M371,125a22.21,22.21,0,0,1,2.17-5.49l-3-4.58,6.3-6.51,4.67,2.84a22.38,22.38,0,0,1,5.42-2.34l1.12-5.36,9.05-.15,1.3,5.32a22.37,22.37,0,0,1,5.49,2.17l4.58-3,6.5,6.29-2.84,4.68a22,22,0,0,1,2.35,5.41l5.35,1.13.15,9-5.31,1.29a22.06,22.06,0,0,1-2.17,5.49l3,4.58-6.3,6.51-4.67-2.84a22.4,22.4,0,0,1-5.42,2.35l-1.12,5.35-9.05.15-1.3-5.32a22,22,0,0,1-5.49-2.17l-4.58,3-6.51-6.3,2.85-4.68a22,22,0,0,1-2.35-5.41l-5.36-1.12-.14-9.06L371,125Zm11.94,5.13a9.71,9.71,0,1,0,9.55-9.87A9.7,9.7,0,0,0,382.9,130.17Z"/><path class="cls-5" d="M25.56,276a19.9,19.9,0,0,1,2-5l-2.71-4.15,5.7-5.89,4.23,2.58a19.67,19.67,0,0,1,4.9-2.13l1-4.85,8.19-.13L50,261.22a20,20,0,0,1,5,2l4.15-2.71,5.89,5.7-2.57,4.23a20.18,20.18,0,0,1,2.12,4.9l4.85,1,.14,8.19-4.82,1.18a20.19,20.19,0,0,1-2,5l2.71,4.14-5.7,5.89-4.24-2.57a20.43,20.43,0,0,1-4.9,2.13l-1,4.84-8.2.14-1.17-4.81a20.29,20.29,0,0,1-5-2l-4.15,2.71-5.89-5.7,2.58-4.23a19.74,19.74,0,0,1-2.13-4.91l-4.85-1-.13-8.2L25.56,276Zm10.8,4.64A8.8,8.8,0,1,0,45,271.66,8.79,8.79,0,0,0,36.36,280.59Z"/><path class="cls-5" d="M197.51,106.4a9.07,9.07,0,0,1,.85-2.17l-1.18-1.8,2.48-2.57,1.85,1.12a8.8,8.8,0,0,1,2.13-.92l.44-2.11,3.57-.06.51,2.09a8.55,8.55,0,0,1,2.17.86l1.8-1.18,2.57,2.48L213.58,104a8.42,8.42,0,0,1,.92,2.13l2.11.44.06,3.57-2.09.51a8.7,8.7,0,0,1-.86,2.17l1.18,1.8-2.48,2.57-1.84-1.12a8.87,8.87,0,0,1-2.14.92l-.44,2.11-3.57.06-.51-2.09a8.48,8.48,0,0,1-2.16-.86L200,117.38l-2.56-2.48,1.12-1.85a8.45,8.45,0,0,1-.93-2.13l-2.11-.44-.06-3.57,2.1-.51Zm4.7,2a3.83,3.83,0,1,0,3.77-3.89A3.84,3.84,0,0,0,202.21,108.42Z"/><path class="cls-6" d="M382.58,356c4.5-2.32,9.79-2.62,14.78-1.8,2.69.45,5.48,1.25,7.31,3.26s2.17,5.56.07,7.29a6.91,6.91,0,0,1-4.6,1.17c-3.91,0-8.25-.73-11.37,1.62-1.78,1.34-3,3.57-5.1,4.23a5,5,0,0,1-5.54-2.46,8.6,8.6,0,0,1-.62-6.35A9.7,9.7,0,0,1,382.58,356Z"/><path class="cls-6" d="M372.28,336.15c2.75,3.93,8.09,2.63,10.57.23s3.52-5.87,4.48-9.18c2.18-7.57,4.37-15.52,2.75-23.23a12.86,12.86,0,0,0-3-6.31,6.72,6.72,0,0,0-6.39-2.12c-2.69.71-4.37,3.35-5.58,5.86a55.35,55.35,0,0,0-5.47,23.75c0,3.83.44,7.84,2.6,11"/><path class="cls-6" d="M364.72,341.79c3-3.55,3.56-8.72,2.23-13.15s-4.33-8.22-7.79-11.3a41.81,41.81,0,0,0-14-8.23,14.9,14.9,0,0,0-6.27-1.07,6.58,6.58,0,0,0-5.27,3.19c-1.46,2.8-.06,6.19,1.47,9a105.42,105.42,0,0,0,9.16,13.95c2.74,3.54,5.89,7,10.07,8.63s8.54,1.42,10.75-1.49"/><path class="cls-2" d="M372.09,395.4a9.4,9.4,0,0,0,.25-1.79c.13-1.3.28-2.93.47-4.87a70.83,70.83,0,0,1,1.1-7.14,55.8,55.8,0,0,1,2.59-8.44,31.44,31.44,0,0,1,4.31-7.62,16,16,0,0,1,5.44-4.53,15.47,15.47,0,0,1,4.59-1.43,8.25,8.25,0,0,0,1.77-.25,7.56,7.56,0,0,0-1.8,0,14,14,0,0,0-4.78,1.24,16.14,16.14,0,0,0-5.75,4.57,30.29,30.29,0,0,0-4.46,7.78,52.18,52.18,0,0,0-2.58,8.57,62.27,62.27,0,0,0-.95,7.23c-.15,2.07-.21,3.75-.24,4.9A8.89,8.89,0,0,0,372.09,395.4Z"/><path class="cls-2" d="M372.43,391.65a3.84,3.84,0,0,0,0-.83v-2.37c0-2.05,0-5,.1-8.7.18-7.34.82-15.25,2-26.39,1.15-10.48,2.71-22.68,4.35-30.61.35-1.8.7-3.42,1-4.84s.59-2.66.85-3.65.41-1.7.56-2.3a2.94,2.94,0,0,0,.14-.82,4,4,0,0,0-.28.78c-.19.59-.41,1.35-.69,2.27s-.62,2.2-1,3.62-.76,3-1.14,4.84A267.87,267.87,0,0,0,373.88,351c-1.23,11.17-1.78,21.34-1.83,28.7,0,3.68,0,6.66.13,8.72.06,1,.11,1.74.15,2.37A3.14,3.14,0,0,0,372.43,391.65Z"/><path class="cls-2" d="M372.47,372a13.91,13.91,0,0,0,0-2.48c-.09-1.59-.31-3.88-.76-6.7a87.45,87.45,0,0,0-2.18-9.76,79.53,79.53,0,0,0-4.08-11.56,61.73,61.73,0,0,0-12-18.67,30.88,30.88,0,0,0-2.82-2.62c-.44-.37-.82-.73-1.21-1l-1.09-.76a15.66,15.66,0,0,0-2.09-1.33c-.11.16,2.95,2,6.83,6.09a64.87,64.87,0,0,1,11.69,18.6,93.16,93.16,0,0,1,4.11,11.45c1.07,3.59,1.78,6.89,2.32,9.67s.8,5.06,1,6.64A17.16,17.16,0,0,0,372.47,372Z"/><polygon class="cls-2" points="353.52 406.63 355.48 433.55 390.07 433.55 392.04 406.63 353.52 406.63"/><rect class="cls-2" x="350.18" y="396.02" width="45.98" height="10.61"/><polygon class="cls-6" points="350.18 432.52 350.18 435.46 352.34 435.46 395.4 435.46 395.4 432.52 350.18 432.52"/><polygon class="cls-2" points="354.46 440.64 352.34 435.46 393.76 435.46 391.29 440.64 354.46 440.64"/><path class="cls-7" d="M391.39,415.43s0,.09-.16.25l-.51.68-2,2.58-.09.12-.09-.12c-1.26-1.76-2.95-4.1-4.95-6.85h.29L379,419l-.16.22-.17-.21-5.78-6.87h.34l-.32.4L367.73,419l-.17.22-.16-.23-4.88-6.9.29,0c-2.41,2.73-4.44,5.06-6,6.84l-.11.12-.08-.14-1.88-3.16-.48-.84a1.08,1.08,0,0,1-.15-.3,1.57,1.57,0,0,1,.2.27l.54.81,2,3.1h-.19l5.91-6.93.15-.17.14.18,4.92,6.87h-.33l5.15-6.49.32-.4.16-.2.17.2,5.77,6.89h-.33l4.92-6.86.15-.2.14.2c1.95,2.78,3.61,5.15,4.84,6.92h-.17l2.09-2.51.57-.65Z"/><path class="cls-7" d="M392.52,406.45c0,.12-8.67.22-19.36.22s-19.35-.1-19.35-.22,8.66-.21,19.35-.21S392.52,406.33,392.52,406.45Z"/><path class="cls-7" d="M394.26,435.75c0,.12-9.41.22-21,.22s-21-.1-21-.22,9.42-.21,21-.21S394.26,435.64,394.26,435.75Z"/><path class="cls-6" d="M30,134.29a10.87,10.87,0,0,1,1.79,0c.58,0,1.29,0,2.1.06s1.76.09,2.78.22a64.67,64.67,0,0,1,7.17,1.13,71.67,71.67,0,0,1,8.54,2.48,72,72,0,0,1,8.12,3.61,62.75,62.75,0,0,1,6.21,3.76c.87.56,1.6,1.14,2.26,1.62s1.22.93,1.66,1.31A12.38,12.38,0,0,1,72,149.63a10.53,10.53,0,0,1-1.47-1c-.46-.35-1-.77-1.7-1.23s-1.42-1-2.29-1.56c-1.71-1.13-3.83-2.37-6.23-3.63a76.93,76.93,0,0,0-8.08-3.55,77.6,77.6,0,0,0-8.46-2.5,72.05,72.05,0,0,0-7.11-1.24c-1-.15-1.94-.2-2.76-.29s-1.51-.12-2.09-.15A11.41,11.41,0,0,1,30,134.29Z"/><path class="cls-6" d="M11.51,245.7a3.13,3.13,0,0,1,.54-.46l1.6-1.21c.69-.53,1.56-1.17,2.6-1.85s2.18-1.5,3.54-2.29,2.79-1.71,4.42-2.57,3.37-1.76,5.23-2.67A109,109,0,0,1,42,229.73,110.78,110.78,0,0,1,55,226.54c2-.32,4-.66,5.81-.83s3.54-.36,5.1-.45,3-.13,4.22-.16,2.31,0,3.18,0l2,.07a3.2,3.2,0,0,1,.7.06,3.45,3.45,0,0,1-.7,0l-2,0c-.87,0-1.94,0-3.18.08s-2.64.08-4.19.24-3.26.25-5.07.51-3.75.54-5.79.87a114.69,114.69,0,0,0-13,3.22,115.86,115.86,0,0,0-12.48,4.85c-1.85.9-3.63,1.73-5.22,2.62s-3.1,1.71-4.44,2.5-2.53,1.57-3.57,2.23-1.93,1.26-2.64,1.76l-1.66,1.14A4.71,4.71,0,0,1,11.51,245.7Z"/><path class="cls-6" d="M83.38,299.45a1.68,1.68,0,0,1,.07-.54l.3-1.54c.13-.66.3-1.47.55-2.4s.48-2,.83-3.17c.65-2.34,1.54-5.08,2.67-8.09s2.53-6.24,4.18-9.56,3.44-6.36,5.15-9.08,3.4-5.06,4.89-7c.72-1,1.43-1.81,2-2.56s1.14-1.37,1.6-1.88l1-1.16a2.88,2.88,0,0,1,.39-.38s-.09.17-.31.45l-1,1.22c-.43.53-1,1.17-1.53,1.94s-1.27,1.61-2,2.6c-1.44,1.93-3.06,4.31-4.77,7s-3.43,5.76-5.09,9.06-3,6.52-4.21,9.49-2.07,5.71-2.76,8c-.37,1.15-.64,2.21-.9,3.13s-.47,1.72-.63,2.38-.29,1.11-.4,1.51A2.61,2.61,0,0,1,83.38,299.45Z"/><path class="cls-6" d="M219.24,25a4,4,0,0,1-.39.6l-1.2,1.69c-.53.72-1.17,1.61-1.87,2.67s-1.55,2.24-2.39,3.6-1.81,2.83-2.74,4.46-1.93,3.39-3,5.24c-2,3.75-4,8-5.83,12.47s-3.32,8.94-4.53,13c-.56,2-1.13,4-1.55,5.81s-.82,3.54-1.15,5.11-.57,3-.8,4.24-.4,2.34-.52,3.23-.24,1.52-.32,2a3.25,3.25,0,0,1-.15.7,3.9,3.9,0,0,1,0-.72c.06-.52.13-1.2.22-2s.23-2,.44-3.24.4-2.7.73-4.27.64-3.31,1.09-5.14,1-3.79,1.51-5.84c1.19-4.08,2.67-8.52,4.5-13.07A135.73,135.73,0,0,1,207.28,43c1-1.86,2-3.63,3-5.24s1.91-3.1,2.8-4.44,1.73-2.52,2.46-3.56,1.39-1.93,2-2.63.95-1.22,1.28-1.63S219.22,25,219.24,25Z"/><path class="cls-6" d="M309.27,128.86a2.88,2.88,0,0,1-.6.11l-1.73.23-1.25.15c-.46.07-.95.18-1.47.27-1.06.22-2.27.39-3.57.77l-2.06.53c-.71.19-1.43.46-2.18.7-1.53.46-3.09,1.14-4.74,1.81a57.83,57.83,0,0,0-18.89,13.27c-1.19,1.33-2.36,2.57-3.3,3.85-.48.63-1,1.21-1.41,1.81l-1.19,1.76c-.8,1.09-1.37,2.18-1.93,3.09-.27.47-.54.89-.76,1.3l-.56,1.12c-.33.63-.6,1.15-.8,1.55a2.14,2.14,0,0,1-.32.53,3.28,3.28,0,0,1,.22-.57l.71-1.6c.17-.35.34-.73.53-1.15s.47-.84.73-1.32a33.93,33.93,0,0,1,1.87-3.16c.37-.57.77-1.16,1.18-1.78s.91-1.21,1.39-1.85c.94-1.3,2.1-2.56,3.29-3.91A56.24,56.24,0,0,1,291.48,133c1.67-.66,3.25-1.33,4.79-1.78.77-.23,1.49-.5,2.22-.68l2.07-.5a34.58,34.58,0,0,1,3.61-.69c.53-.09,1-.18,1.48-.23l1.27-.11,1.74-.13A2.18,2.18,0,0,1,309.27,128.86Z"/><path class="cls-6" d="M382.8,188.37l-.26-.08-.75-.25-2.87-1-2.07-.76c-.76-.26-1.6-.51-2.5-.8-1.79-.56-3.81-1.27-6.11-1.85l-3.58-1c-1.25-.34-2.57-.6-3.92-.92C358,181,355.1,180.54,352,180a150.92,150.92,0,0,0-40.57-1.24c-3.1.37-6.06.68-8.8,1.18-1.37.24-2.7.42-4,.68l-3.63.75c-2.33.44-4.39,1-6.22,1.48-.91.23-1.76.43-2.54.64l-2.11.63-2.93.86-.76.21-.27.05.25-.1.75-.26,2.9-1,2.11-.67c.77-.23,1.62-.45,2.53-.7,1.82-.47,3.88-1.08,6.21-1.55l3.64-.79c1.26-.27,2.6-.46,4-.7,2.74-.53,5.71-.85,8.82-1.24a147,147,0,0,1,40.69,1.25c3.09.58,6,1.08,8.73,1.77,1.36.33,2.68.6,3.93.95l3.58,1c2.3.61,4.31,1.35,6.1,1.93.9.3,1.73.57,2.49.85l2.06.8,2.84,1.12.73.31A1,1,0,0,1,382.8,188.37Z"/></g><g id="Speech_Bubble" data-name="Speech Bubble"><path class="cls-8" d="M227.37,24.46V53c-6.47,6.35-29.85,29.93-29.85,29.93h29.85v22.45a14.49,14.49,0,0,0,14.35,14.48L407.2,121.4a14.47,14.47,0,0,0,14.61-14.48V24.46A14.48,14.48,0,0,0,407.33,10H241.85A14.48,14.48,0,0,0,227.37,24.46Z"/><path class="cls-9" d="M227.37,24.46s0-.55.06-1.62a14.69,14.69,0,0,1,1.28-4.58,14.45,14.45,0,0,1,1.84-3,15.57,15.57,0,0,1,3.12-2.88,14.65,14.65,0,0,1,4.5-2.05,20.3,20.3,0,0,1,5.6-.5L311,9.75l46.43,0,25.87,0h23.91c.59,0,1.19,0,1.78.1a13.38,13.38,0,0,1,1.77.31,14.76,14.76,0,0,1,10.43,9.27,15.07,15.07,0,0,1,.85,3.58c.08,1.24.08,2.45.07,3.67,0,2.43,0,4.87,0,7.33V64q0,15.31,0,31.15v11.93a15.29,15.29,0,0,1-.6,4,14.79,14.79,0,0,1-4.36,6.85,13.65,13.65,0,0,1-3.42,2.29,14.62,14.62,0,0,1-3.94,1.26,20.59,20.59,0,0,1-3.91.2l-3.85,0-7.68-.08-15.2-.14-29.75-.29L293,120.62l-51.3-.51A14.77,14.77,0,0,1,231,115.29a15,15,0,0,1-3.86-10.71q0-11.26,0-21.67l.24.24-29.85,0H197l.36-.35,29.9-29.89,0,.1c0-9.26,0-16.39.06-21.21,0-2.4,0-4.22,0-5.46s0-1.85,0-1.85,0,.62,0,1.85,0,3.06,0,5.46c0,4.82,0,12,.07,21.21V53l0,0-29.8,30-.15-.35,29.85,0h.24v.24q0,10.4,0,21.67a14.47,14.47,0,0,0,3.74,10.35,14.23,14.23,0,0,0,10.35,4.63L293,120l56.4.51,29.76.28,15.2.14,7.67.07,3.86,0a19.18,19.18,0,0,0,3.8-.2,14.22,14.22,0,0,0,11.19-9.93,14.43,14.43,0,0,0,.58-3.86c0-1.33,0-2.66,0-4V64q0-15.31,0-30.06V26.61c0-1.22,0-2.43-.07-3.6a14.48,14.48,0,0,0-.81-3.44,14.14,14.14,0,0,0-10-8.89c-2.23-.59-4.57-.36-6.89-.41h-46.3l-46.43,0-67.24-.11a19.83,19.83,0,0,0-5.55.47,14.6,14.6,0,0,0-4.45,2,15.43,15.43,0,0,0-3.09,2.82,14.55,14.55,0,0,0-1.86,2.94A15.25,15.25,0,0,0,227.37,24.46Z"/><path d="M279.93,89.79h-3.35V94.2h-1.73V89.79h-9.46V88.54l8.89-11.11h1.92l-8.58,10.83h7.28V84.38h1.68v3.88h3.35Z"/><path d="M281.51,85.81c0-5.34,2.8-8.52,6.68-8.52s6.71,3.18,6.71,8.52-2.83,8.53-6.71,8.53S281.51,91.16,281.51,85.81Zm11.62,0c0-4.48-2-6.94-4.94-6.94s-4.93,2.46-4.93,6.94,2,7,4.93,7S293.13,90.29,293.13,85.81Z"/><path d="M311.61,89.79h-3.35V94.2h-1.73V89.79h-9.46V88.54L306,77.43h1.92L299.3,88.26h7.28V84.38h1.68v3.88h3.35Z"/><path d="M332.94,92.66V94.2H321.08V77.43h11.5V79h-9.73v6h8.67v1.51h-8.67v6.22Z"/><path d="M343.09,81.5v1.65l-.41,0c-2.63,0-4.24,1.68-4.24,4.65V94.2h-1.7V81.6h1.63v2.46C339.16,82.39,340.76,81.5,343.09,81.5Z"/><path d="M352.5,81.5v1.65l-.41,0c-2.63,0-4.24,1.68-4.24,4.65V94.2h-1.7V81.6h1.63v2.46C348.57,82.39,350.17,81.5,352.5,81.5Z"/><path d="M354.17,87.9a6.41,6.41,0,1,1,6.42,6.42A6.2,6.2,0,0,1,354.17,87.9Zm11.09,0a4.69,4.69,0,1,0-4.67,4.91A4.59,4.59,0,0,0,365.26,87.9Z"/><path d="M376.8,81.5v1.65l-.4,0c-2.64,0-4.24,1.68-4.24,4.65V94.2h-1.7V81.6h1.62v2.46C372.88,82.39,374.48,81.5,376.8,81.5Z"/><path d="M266.53,49.62c0-7.87,6.13-13.7,14.49-13.7s14.49,5.79,14.49,13.7-6.16,13.7-14.49,13.7S266.53,57.49,266.53,49.62Zm22.78,0a8.29,8.29,0,1,0-16.57,0,8.29,8.29,0,1,0,16.57,0Z"/><path d="M298.2,52.68c0-6.13,4.72-10.48,11.2-10.48s11.16,4.35,11.16,10.48-4.69,10.49-11.16,10.49S298.2,58.81,298.2,52.68Zm16.38,0c0-3.51-2.23-5.63-5.18-5.63s-5.23,2.12-5.23,5.63,2.27,5.64,5.23,5.64S314.58,56.2,314.58,52.68Z"/><path d="M346.66,52.68c0,6.4-4.43,10.49-10.14,10.49a7.92,7.92,0,0,1-6.13-2.46V70.2h-5.9V42.51h5.64v2.34a7.89,7.89,0,0,1,6.39-2.65C342.23,42.2,346.66,46.29,346.66,52.68Zm-6,0c0-3.51-2.23-5.63-5.18-5.63s-5.18,2.12-5.18,5.63,2.23,5.64,5.18,5.64S340.68,56.2,340.68,52.68Z"/><path d="M348.62,61l2-4.24a13.88,13.88,0,0,0,7.08,2c2.72,0,3.74-.72,3.74-1.85,0-3.33-12.3.07-12.3-8.06,0-3.86,3.49-6.59,9.43-6.59A16.79,16.79,0,0,1,366.37,44l-2,4.2a11.72,11.72,0,0,0-5.86-1.51c-2.65,0-3.79.83-3.79,1.89,0,3.48,12.3.11,12.3,8.13,0,3.79-3.52,6.48-9.61,6.48A17.48,17.48,0,0,1,348.62,61Z"/><path d="M369.81,59.72a3.64,3.64,0,0,1,7.26,0,3.63,3.63,0,0,1-7.26,0Zm.11-23.34h7l-1.17,17.29h-4.7Z"/></g><g id="Robot"><path class="cls-10" d="M138.46,10.24h1.32a13.95,13.95,0,0,1,13.95,13.95V28a14,14,0,0,1-14,14h-1.32a0,0,0,0,1,0,0V10.24a0,0,0,0,1,0,0Z" transform="translate(24.05 110.51) rotate(-44.79)"/><path class="cls-9" d="M151.84,42.72h0l-22.33-22.5h0l.93-.93a13.9,13.9,0,0,1,9.85-4.06h.05a13.91,13.91,0,0,1,9.87,4.12L152.86,22a14,14,0,0,1-.06,19.77ZM129.56,20.21l22.28,22.44.92-.91a13.93,13.93,0,0,0,.07-19.69l-2.66-2.68a13.81,13.81,0,0,0-9.83-4.11h-.05a13.83,13.83,0,0,0-9.81,4Z"/><path class="cls-10" d="M60.48,86.46H61.8a13.95,13.95,0,0,1,13.95,13.95v3.77a14,14,0,0,1-14,14H60.48a0,0,0,0,1,0,0V86.46a0,0,0,0,1,0,0Z" transform="translate(187.55 131.27) rotate(137.3)"/><path class="cls-9" d="M74.05,113.37h-.58a13.91,13.91,0,0,1-9.71-4.48l-2.55-2.78A14,14,0,0,1,62,86.35l1-.91,0,0L84.5,108.75l0,0-1,.9A13.86,13.86,0,0,1,74.05,113.37Zm-12-27a13.93,13.93,0,0,0-.79,19.68l2.56,2.77a13.85,13.85,0,0,0,9.68,4.47h.57a13.83,13.83,0,0,0,9.43-3.69l1-.88L63,85.51Z"/><rect class="cls-10" x="55.81" y="54.65" width="2.5" height="20.69" transform="translate(-29.35 68.6) rotate(-51.11)"/><path class="cls-9" d="M50.84,53.42a5.1,5.1,0,1,1-7.17.77A5.11,5.11,0,0,1,50.84,53.42Z"/><rect class="cls-11" x="65.1" y="36.05" width="99.18" height="74.84" rx="16.5" transform="translate(-18.46 102.15) rotate(-44.8)"/><polygon class="cls-10" points="113.11 22.3 110.91 13.87 105.16 14.82 103.5 8.73 105.38 8.3 106.69 12.73 112.42 11.95 114.83 20.6 113.11 22.3"/><rect class="cls-9" x="64.41" y="50.41" width="85.13" height="30.57" rx="13.96" transform="translate(-15.22 94.45) rotate(-44.8)"/><path class="cls-9" d="M140.28,60.08s.12-.16.37-.45a14.86,14.86,0,0,0,1.1-1.33,16.84,16.84,0,0,0,2.93-5.87,18.94,18.94,0,0,0,.67-4.7,18.57,18.57,0,0,0-.9-5.56,17.22,17.22,0,0,0-3.12-5.65l-1.18-1.3-1.28-1.28a26.54,26.54,0,0,0-2.76-2.52,17.42,17.42,0,0,0-19.91-.85,21.75,21.75,0,0,0-3.61,3l-7,7L74.11,71.84a17.41,17.41,0,0,0-5,10.11,18.06,18.06,0,0,0,.18,5.59A17.53,17.53,0,0,0,72.76,95c.59.69,1.17,1.36,1.83,2a30.29,30.29,0,0,0,3.94,3.62,17.35,17.35,0,0,0,19,.87,18.61,18.61,0,0,0,2-1.33c.6-.51,1.18-1,1.74-1.57l3.29-3.25,12-11.85,17.38-17.13,4.74-4.64,1.24-1.2c.28-.26.44-.39.44-.39s-.13.15-.4.43l-1.21,1.24L134,66.45,116.74,83.7,104.81,95.6l-3.27,3.26c-.56.55-1.17,1.08-1.77,1.6a19.85,19.85,0,0,1-2,1.38A17.84,17.84,0,0,1,78.24,101a32.38,32.38,0,0,1-4-3.67c-.65-.63-1.26-1.34-1.87-2a20.56,20.56,0,0,1-1.56-2.33,17.94,17.94,0,0,1-2-5.3,18.83,18.83,0,0,1-.18-5.76,17.85,17.85,0,0,1,5.11-10.4L105.2,40.27l7.07-7a21.63,21.63,0,0,1,3.7-3.07,17.72,17.72,0,0,1,20.36.93,26.56,26.56,0,0,1,2.79,2.57L140.39,35l1.19,1.32a17.6,17.6,0,0,1,3.15,5.78,18.45,18.45,0,0,1,.86,5.65,19.29,19.29,0,0,1-.71,4.76,16.66,16.66,0,0,1-3,5.88,11.53,11.53,0,0,1-1.14,1.29Z"/><path class="cls-12" d="M88.38,91.55a75.67,75.67,0,0,1-.39-9,79.85,79.85,0,0,1,.13-9,76.1,76.1,0,0,1,.39,9A79.51,79.51,0,0,1,88.38,91.55Z"/><path class="cls-12" d="M97.09,81.84a75.1,75.1,0,0,1-9,.67,81.18,81.18,0,0,1-9,.15,75.1,75.1,0,0,1,9-.67A81.16,81.16,0,0,1,97.09,81.84Z"/><path class="cls-12" d="M124,55.23a78.76,78.76,0,0,1-.39-9,79.51,79.51,0,0,1,.13-9,76.1,76.1,0,0,1,.39,9A79.51,79.51,0,0,1,124,55.23Z"/><path class="cls-12" d="M132.73,45.52a80.16,80.16,0,0,1-9,.67,76.89,76.89,0,0,1-9,.14,79.16,79.16,0,0,1,9-.66A78.34,78.34,0,0,1,132.73,45.52Z"/><circle class="cls-9" cx="103.26" cy="5.1" r="5.1" transform="translate(-0.07 1.6) rotate(-0.89)"/><path class="cls-9" d="M119.13,121.8a5.09,5.09,0,0,1-.88-.73c-.55-.49-1.32-1.22-2.27-2.12-1.89-1.8-4.49-4.33-7.32-7.14s-5.38-5.38-7.2-7.27a22.26,22.26,0,0,1-2.81-3.18,11.05,11.05,0,0,1,.84.77l2.23,2.15c2,1.91,4.5,4.41,7.3,7.16s5.39,5.38,7.22,7.25l2.15,2.24A4.71,4.71,0,0,1,119.13,121.8Z"/><path class="cls-9" d="M162.44,78.17a4.79,4.79,0,0,1-.88-.73c-.54-.49-1.31-1.21-2.26-2.11-1.9-1.81-4.49-4.33-7.33-7.14s-5.38-5.39-7.19-7.28A24.11,24.11,0,0,1,142,57.74a6.36,6.36,0,0,1,.85.76L145,60.65l7.3,7.17c2.84,2.81,5.39,5.37,7.22,7.24l2.15,2.24A4.72,4.72,0,0,1,162.44,78.17Z"/><rect class="cls-9" x="99.42" y="81.7" width="52.15" height="5.72" transform="translate(-22.8 114.7) rotate(-45.46)"/><path class="cls-9" d="M100.22,107.94a1.1,1.1,0,1,1-1-1.13A1.1,1.1,0,0,1,100.22,107.94Z"/><path class="cls-9" d="M108.56,116.75a1.1,1.1,0,1,1-2.19-.09,1.1,1.1,0,0,1,2.19.09Z"/><path class="cls-9" d="M149.24,58a1.1,1.1,0,0,1-1.14,1,1.1,1.1,0,0,1,.09-2.19A1.1,1.1,0,0,1,149.24,58Z"/><path class="cls-9" d="M157.58,66.84a1.09,1.09,0,1,1-2.18-.09,1.09,1.09,0,1,1,2.18.09Z"/><path class="cls-12" d="M68.07,109.09a27.16,27.16,0,0,0-2.31-2c-.75-.59-1.7-1.23-2.67-2.09a10.37,10.37,0,0,1-2.54-3.34,11.3,11.3,0,0,1-.79-7.48A8.89,8.89,0,0,1,60.58,92c.27-.47.44-.72.47-.7a22.92,22.92,0,0,0-.93,2.93,11.54,11.54,0,0,0,.9,7.17c1.2,2.66,3.52,4.12,5,5.37A7,7,0,0,1,68.07,109.09Z"/><path class="cls-12" d="M111.54,28.65c.1.1-10.41,10.48-23.47,23.17S64.32,74.73,64.22,74.63,74.63,64.15,87.7,51.45,111.44,28.55,111.54,28.65Z"/><path class="cls-12" d="M46.54,61c0,.06-.52,0-1.19-.45a4.1,4.1,0,0,1-1.2-5.6c.44-.69.88-.95.92-.9s-.28.41-.59,1.07a4.19,4.19,0,0,0,1.09,5.14C46.13,60.73,46.57,60.91,46.54,61Z"/><path class="cls-12" d="M102.08,8.81c0,.06-.57,0-1.28-.51a4.27,4.27,0,0,1-1.71-2.86A4.24,4.24,0,0,1,100,2.25c.56-.67,1.08-.88,1.1-.83s-.37.38-.8,1a4.45,4.45,0,0,0-.72,2.91A4.4,4.4,0,0,0,101,8C101.62,8.54,102.11,8.73,102.08,8.81Z"/><path class="cls-12" d="M139.94,16.83a22.58,22.58,0,0,0-4.11.94,22.54,22.54,0,0,0-3.63,2.13,6.58,6.58,0,0,1,3.44-2.62A6.69,6.69,0,0,1,139.94,16.83Z"/><path class="cls-12" d="M98.43,123.58A103.24,103.24,0,0,1,91,116.23c-4-4.16-7.19-7.61-7.08-7.71s3.44,3.19,7.46,7.35S98.53,123.48,98.43,123.58Z"/><rect class="cls-11" x="171.06" y="363.74" width="42.79" height="60.65"/><path class="cls-9" d="M171.39,423.35h42.14a5.7,5.7,0,0,1,5.7,5.7v.54a0,0,0,0,1,0,0H165.68a0,0,0,0,1,0,0v-.54A5.7,5.7,0,0,1,171.39,423.35Z"/><rect class="cls-11" x="160.8" y="429.59" width="64.99" height="9.88"/><path class="cls-9" d="M213.64,417.73c0,.14-9.48.26-21.18.26s-21.19-.12-21.19-.26,9.48-.26,21.19-.26S213.64,417.58,213.64,417.73Z"/><path class="cls-9" d="M213.64,410.51c0,.15-9.48.26-21.18.26s-21.19-.11-21.19-.26,9.48-.26,21.19-.26S213.64,410.37,213.64,410.51Z"/><path class="cls-9" d="M213.64,403.43c0,.14-9.48.26-21.18.26s-21.19-.12-21.19-.26,9.48-.26,21.19-.26S213.64,403.29,213.64,403.43Z"/><path class="cls-9" d="M213.64,396.22c0,.14-9.48.26-21.18.26s-21.19-.12-21.19-.26,9.48-.26,21.19-.26S213.64,396.07,213.64,396.22Z"/><path class="cls-9" d="M213.64,389.13c0,.15-9.48.26-21.18.26s-21.19-.11-21.19-.26,9.48-.26,21.19-.26S213.64,389,213.64,389.13Z"/><path class="cls-9" d="M213.64,381.92c0,.15-9.48.26-21.18.26s-21.19-.11-21.19-.26,9.48-.26,21.19-.26S213.64,381.78,213.64,381.92Z"/><path class="cls-9" d="M213.64,374.84c0,.14-9.48.26-21.18.26s-21.19-.12-21.19-.26,9.48-.26,21.19-.26S213.64,374.69,213.64,374.84Z"/><path class="cls-9" d="M213.64,367.63c0,.14-9.48.26-21.18.26s-21.19-.12-21.19-.26,9.48-.26,21.19-.26S213.64,367.48,213.64,367.63Z"/><g class="cls-13"><polygon points="171.06 372.19 213.64 371.01 213.64 364.83 170.68 364.83 171.06 372.19"/></g><rect class="cls-11" x="238.08" y="363.74" width="42.79" height="60.65"/><path class="cls-9" d="M238.41,423.35h42.14a5.7,5.7,0,0,1,5.7,5.7v.54a0,0,0,0,1,0,0H232.7a0,0,0,0,1,0,0v-.54A5.7,5.7,0,0,1,238.41,423.35Z"/><rect class="cls-11" x="227.82" y="429.59" width="64.99" height="9.88"/><path class="cls-9" d="M280.66,417.73c0,.14-9.48.26-21.18.26s-21.19-.12-21.19-.26,9.48-.26,21.19-.26S280.66,417.58,280.66,417.73Z"/><path class="cls-9" d="M280.66,410.51c0,.15-9.48.26-21.18.26s-21.19-.11-21.19-.26,9.48-.26,21.19-.26S280.66,410.37,280.66,410.51Z"/><path class="cls-9" d="M280.66,403.43c0,.14-9.48.26-21.18.26s-21.19-.12-21.19-.26,9.48-.26,21.19-.26S280.66,403.29,280.66,403.43Z"/><path class="cls-9" d="M280.66,396.22c0,.14-9.48.26-21.18.26s-21.19-.12-21.19-.26,9.48-.26,21.19-.26S280.66,396.07,280.66,396.22Z"/><path class="cls-9" d="M280.66,389.13c0,.15-9.48.26-21.18.26s-21.19-.11-21.19-.26,9.48-.26,21.19-.26S280.66,389,280.66,389.13Z"/><path class="cls-9" d="M280.66,381.92c0,.15-9.48.26-21.18.26s-21.19-.11-21.19-.26,9.48-.26,21.19-.26S280.66,381.78,280.66,381.92Z"/><path class="cls-9" d="M280.66,374.84c0,.14-9.48.26-21.18.26s-21.19-.12-21.19-.26,9.48-.26,21.19-.26S280.66,374.69,280.66,374.84Z"/><path class="cls-9" d="M280.66,367.63c0,.14-9.48.26-21.18.26s-21.19-.12-21.19-.26,9.48-.26,21.19-.26S280.66,367.48,280.66,367.63Z"/><g class="cls-13"><polygon points="238.08 372.19 280.66 371.01 280.66 364.83 237.7 364.83 238.08 372.19"/></g><path class="cls-11" d="M290.79,188.77h4.32a1.83,1.83,0,0,1,1.83,1.83v17.68a0,0,0,0,1,0,0h-8a0,0,0,0,1,0,0V190.61a1.83,1.83,0,0,1,1.83-1.83Z" transform="translate(28.75 433.97) rotate(-75.83)"/><g class="cls-13"><path d="M290.79,188.77h4.32a1.83,1.83,0,0,1,1.83,1.83v17.68a0,0,0,0,1,0,0h-8a0,0,0,0,1,0,0V190.61a1.83,1.83,0,0,1,1.83-1.83Z" transform="translate(28.75 433.97) rotate(-75.83)"/></g><path class="cls-11" d="M286.44,202.82h5.94a3,3,0,0,1,3,3v16.47a0,0,0,0,1,0,0h-12a0,0,0,0,1,0,0V205.86A3,3,0,0,1,286.44,202.82Z" transform="translate(12.46 441.14) rotate(-75.83)"/><rect class="cls-11" x="286.96" y="202.14" width="20.39" height="7.7" transform="translate(24.69 443.68) rotate(-75.83)"/><path class="cls-11" d="M308.3,275.54s31.95-1.3,29.31-31.92c-2-23.45-36.91-23.66-36.91-23.66l8.92-19.49s40.76,3.55,48.81,33.23c9.09,33.54-11.93,60.89-50.13,60.25Z"/><rect class="cls-9" x="296.94" y="196.06" width="12.44" height="27.68" transform="translate(52.44 -60.48) rotate(12.46)"/><path class="cls-10" d="M306.77,221.9c0,.23-2.75-.24-6-1a35.59,35.59,0,0,1-5.91-1.64,38,38,0,0,1,6,1.13c1.65.38,3.14.74,4.21,1l1.27.34A1.7,1.7,0,0,1,306.77,221.9Z"/><path class="cls-10" d="M307.85,217c0,.23-2.75-.24-6.05-1a33.84,33.84,0,0,1-5.9-1.64,38.26,38.26,0,0,1,6,1.13c1.65.38,3.13.74,4.21,1l1.26.34A1.89,1.89,0,0,1,307.85,217Z"/><path class="cls-10" d="M309.14,212.16c0,.24-2.76-.23-6.05-1a35.59,35.59,0,0,1-5.91-1.64,37.84,37.84,0,0,1,6,1.13c1.65.37,3.14.73,4.21,1l1.27.33Z"/><path class="cls-10" d="M310,207.3c0,.23-2.75-.24-6.05-1a34.52,34.52,0,0,1-5.9-1.64,38.26,38.26,0,0,1,6,1.13c1.65.38,3.13.74,4.21,1l1.26.34A1.7,1.7,0,0,1,310,207.3Z"/><path class="cls-10" d="M311.25,202.74c0,.24-2.75-.23-6-1a35.59,35.59,0,0,1-5.91-1.64,38,38,0,0,1,6,1.13c1.65.37,3.14.73,4.21,1l1.26.33A3.55,3.55,0,0,1,311.25,202.74Z"/><path class="cls-9" d="M315.28,293.75a13.34,13.34,0,0,1-.65-2.7c-.32-1.68-.7-4-1-6.61s-.45-5-.51-6.67a13.76,13.76,0,0,1,0-2.78,14.56,14.56,0,0,1,.34,2.75c.15,1.7.36,4.05.66,6.64s.61,4.92.84,6.61A17,17,0,0,1,315.28,293.75Z"/><path class="cls-9" d="M325.21,292.2a93.17,93.17,0,0,1-2.91-9.54,95,95,0,0,1-2.41-9.69,96,96,0,0,1,2.91,9.55A97.71,97.71,0,0,1,325.21,292.2Z"/><path class="cls-9" d="M338.56,287.42a18.68,18.68,0,0,1-1.71-2.65c-1.08-1.8-2.41-4-3.89-6.52l-3.92-6.5A20.32,20.32,0,0,1,327.5,269a17.48,17.48,0,0,1,1.85,2.55c1.08,1.62,2.52,3.89,4,6.43s2.85,4.89,3.77,6.61A18.81,18.81,0,0,1,338.56,287.42Z"/><path class="cls-9" d="M349.79,278.42c-.1.11-4.07-3-8.88-7s-8.64-7.32-8.55-7.43,4.07,3,8.88,7S349.88,278.3,349.79,278.42Z"/><path class="cls-9" d="M357,266.07c-.06.14-4.76-1.7-10.51-4.09s-10.36-4.44-10.3-4.57,4.76,1.7,10.5,4.09S357.07,265.94,357,266.07Z"/><path class="cls-9" d="M360.56,252.75a24.32,24.32,0,0,1-3.37-.32l-8.08-1-8.09-1a20.55,20.55,0,0,1-3.34-.51,20.89,20.89,0,0,1,3.38.14c2.08.16,4.95.44,8.11.83s6,.8,8.07,1.15A20,20,0,0,1,360.56,252.75Z"/><path class="cls-9" d="M358.91,238.93a17.94,17.94,0,0,1-3,1c-1.89.55-4.53,1.23-7.47,1.85s-5.63,1.06-7.58,1.32a17.3,17.3,0,0,1-3.17.27,22.66,22.66,0,0,1,3.11-.64c1.94-.35,4.6-.84,7.53-1.46s5.57-1.24,7.48-1.7A21.76,21.76,0,0,1,358.91,238.93Z"/><path class="cls-9" d="M354.89,225.67c.06.13-4.22,2.42-9.57,5.12s-9.75,4.78-9.81,4.65,4.22-2.42,9.57-5.12S354.82,225.55,354.89,225.67Z"/><path class="cls-9" d="M346.65,214.92c.09.11-3.47,3.33-8,7.2s-8.2,6.91-8.29,6.8,3.46-3.33,8-7.2S346.56,214.81,346.65,214.92Z"/><path class="cls-9" d="M332.75,206.94c.12.07-2.13,4-5,8.83a97,97,0,0,1-5.48,8.57c-.12-.07,2.13-4,5-8.84A100,100,0,0,1,332.75,206.94Z"/><path class="cls-9" d="M320.3,201.94c.13,0-1.2,4.46-3,9.86s-3.34,9.74-3.47,9.7a99.88,99.88,0,0,1,3-9.87A101.3,101.3,0,0,1,320.3,201.94Z"/><g class="cls-13"><path d="M335.3,259.3a24.63,24.63,0,0,1-11.58,11.88,36.72,36.72,0,0,1-7.84,3.06c6.11,3.26,14.08,1.31,19.43-3.1s8.16-11.41,8.35-18.34a21.73,21.73,0,0,0-1.73-9.6c-1.36-3-3.61-6.12-6.58-7.5a18.45,18.45,0,0,1,1.86,5.25A30.68,30.68,0,0,1,335.3,259.3Z"/></g><path class="cls-9" d="M100.45,313.24a8.6,8.6,0,0,1,1,1.11c.62.73,1.46,1.82,2.46,3.21a70.45,70.45,0,0,1,6.62,11.58,69.49,69.49,0,0,1,4.29,12.63c.39,1.66.65,3,.79,4a9.26,9.26,0,0,1,.17,1.48,7.49,7.49,0,0,1-.37-1.44c-.2-.93-.52-2.27-1-3.91a77.8,77.8,0,0,0-10.86-24.09c-1-1.41-1.74-2.53-2.31-3.3A7.57,7.57,0,0,1,100.45,313.24Z"/><path class="cls-9" d="M96.2,309.7c.1-.11.57.15,1.06.59s.8.87.71,1-.57-.15-1.06-.59S96.11,309.8,96.2,309.7Z"/><path class="cls-9" d="M97.18,306.76c.12-.07.61.52,1.1,1.34s.78,1.53.66,1.6-.62-.52-1.11-1.34S97.05,306.83,97.18,306.76Z"/><path class="cls-10" d="M115.68,347.84a5.24,5.24,0,0,1,.15-.8q.21-.85.54-2.28c.47-2,1.14-4.84,1.91-8.39,1.54-7.1,3.41-17,4.78-28,.73-5.48,1-10.8,2.28-15.49a23.35,23.35,0,0,1,2.68-6.31,18.57,18.57,0,0,1,4-4.47,18.8,18.8,0,0,1,7.73-3.76,14.87,14.87,0,0,1,2.32-.35,4.64,4.64,0,0,1,.82,0,6.05,6.05,0,0,1-.81.12,21.6,21.6,0,0,0-2.29.44,19.47,19.47,0,0,0-7.54,3.86,18.55,18.55,0,0,0-3.85,4.4,23.25,23.25,0,0,0-2.59,6.22c-1.24,4.62-1.49,9.93-2.22,15.43-1.38,11-3.31,20.89-4.94,28-.82,3.55-1.55,6.4-2.07,8.36l-.64,2.25A4.44,4.44,0,0,1,115.68,347.84Z"/><path class="cls-9" d="M116.87,268.54a16.13,16.13,0,0,0,2.54,3.72,16.88,16.88,0,0,0,9.62,4.68,36.27,36.27,0,0,0,10.91-.46l3.3-.58a6.67,6.67,0,0,1,1.22-.16,5.25,5.25,0,0,1-1.18.36c-.77.19-1.88.46-3.27.74a32.94,32.94,0,0,1-11,.61,16.48,16.48,0,0,1-9.81-4.94,10.79,10.79,0,0,1-1.88-2.81A4,4,0,0,1,116.87,268.54Z"/><path class="cls-9" d="M113.07,265.38c.1-.1.58.21,1.06.7s.8,1,.7,1.06-.58-.21-1.07-.69S113,265.48,113.07,265.38Z"/><path class="cls-9" d="M114.2,263.64c.13-.08.58.43,1,1.13s.69,1.34.57,1.41-.57-.43-1-1.13S114.08,263.71,114.2,263.64Z"/><path class="cls-9" d="M117.33,263.41c.15,0,.17.61.06,1.32s-.32,1.25-.46,1.23-.17-.61-.06-1.32S117.19,263.39,117.33,263.41Z"/><path class="cls-10" d="M126.75,302.46a10.35,10.35,0,0,1-.08,1.78c-.09,1.15-.26,2.8-.5,4.83-.47,4.08-1.31,9.68-2.55,15.81s-2.69,11.62-3.85,15.56c-.57,2-1.07,3.55-1.43,4.63a12.65,12.65,0,0,1-.62,1.67,11.43,11.43,0,0,1,.42-1.73c.33-1.18.76-2.76,1.28-4.67,1.06-3.95,2.43-9.44,3.69-15.56s2.13-11.7,2.7-15.75c.27-2,.49-3.59.65-4.81A14.78,14.78,0,0,1,126.75,302.46Z"/><path class="cls-10" d="M144.48,279.31c0,.1-1.43.11-3.64.69a18.05,18.05,0,0,0-12.54,11.58c-.76,2.15-.88,3.59-1,3.57a2.79,2.79,0,0,1,0-1,15,15,0,0,1,.58-2.68,17.37,17.37,0,0,1,12.8-11.82,15.36,15.36,0,0,1,2.72-.37A3.48,3.48,0,0,1,144.48,279.31Z"/><path class="cls-10" d="M120.42,347.63a5.24,5.24,0,0,1,0-.75c0-.49.12-1.22.25-2.15a20,20,0,0,1,2.37-7.57c.84-1.47,2-2.91,2.94-4.61a9.67,9.67,0,0,0,1-2.78,11.45,11.45,0,0,0,.08-3.16c-.16-2.17-.79-4.51-.3-7a8.28,8.28,0,0,1,1.6-3.39c.73-1,1.57-2,2.24-3a6.28,6.28,0,0,0,1.13-3.41,15.35,15.35,0,0,0-.48-3.57,21.11,21.11,0,0,1-.58-7,19.9,19.9,0,0,1,10.54-15.89,17.52,17.52,0,0,1,2-.88,4.26,4.26,0,0,1,.72-.23,3.85,3.85,0,0,1-.68.32c-.45.21-1.11.51-1.92,1a20.47,20.47,0,0,0-6,5.08,19.71,19.71,0,0,0-4.21,10.67,20.85,20.85,0,0,0,.6,6.82,14.8,14.8,0,0,1,.49,3.69,6.78,6.78,0,0,1-1.2,3.68c-.7,1.11-1.55,2.05-2.26,3.05a8,8,0,0,0-1.53,3.19c-.46,2.31.13,4.62.29,6.84a12,12,0,0,1-.11,3.29,10.21,10.21,0,0,1-1.11,2.9c-1,1.74-2.16,3.16-3,4.59a20.78,20.78,0,0,0-2.48,7.42c-.15.88-.26,1.59-.35,2.12A3.54,3.54,0,0,1,120.42,347.63Z"/><path class="cls-2" d="M145.66,289.67a10,10,0,0,0-2.46.35,9.77,9.77,0,0,0-5.17,4.13c-1.6,2.39-2.31,5.82-2.69,9.6a121.14,121.14,0,0,1-1.83,12.32,200.58,200.58,0,0,1-6,21.82c-.9,2.75-1.65,5-2.19,6.49-.25.72-.46,1.3-.62,1.75a2.49,2.49,0,0,1-.26.6,4.25,4.25,0,0,1,.16-.63c.13-.46.31-1.05.53-1.78l2-6.54c1.69-5.53,4-13.18,5.8-21.82.88-4.31,1.46-8.46,1.86-12.27s1.17-7.3,2.87-9.74a9.74,9.74,0,0,1,5.42-4.12,6.25,6.25,0,0,1,1.86-.23A4.13,4.13,0,0,1,145.66,289.67Z"/><path class="cls-11" d="M108.9,344.05h19.38s-11.75,93.29-76.61,93l.83-18.19S96.63,416.1,108.9,344.05Z"/><path class="cls-11" d="M33.32,407.66h4.32a1.83,1.83,0,0,1,1.83,1.83v17.68a0,0,0,0,1,0,0h-8a0,0,0,0,1,0,0V409.49A1.83,1.83,0,0,1,33.32,407.66Z" transform="translate(-382.5 445.55) rotate(-88.99)"/><g class="cls-13"><path d="M33.32,407.66h4.32a1.83,1.83,0,0,1,1.83,1.83v17.68a0,0,0,0,1,0,0h-8a0,0,0,0,1,0,0V409.49A1.83,1.83,0,0,1,33.32,407.66Z" transform="translate(-382.5 445.55) rotate(-88.99)"/></g><path class="cls-11" d="M32.25,422.14h5.94a3,3,0,0,1,3,3v16.47a0,0,0,0,1,0,0h-12a0,0,0,0,1,0,0V425.18A3,3,0,0,1,32.25,422.14Z" transform="matrix(0.02, -1, 1, 0.02, -397.23, 459.52)"/><rect class="cls-11" x="31.07" y="419.87" width="20.39" height="7.7" transform="translate(-383.11 457.54) rotate(-88.99)"/><rect class="cls-9" x="41.79" y="412.32" width="12.44" height="27.68" transform="translate(-5.2 0.62) rotate(-0.7)"/><path class="cls-10" d="M54.26,437c0,.23-2.74.4-6.11.42a34.37,34.37,0,0,1-6.13-.26,38.67,38.67,0,0,1,6.12-.27c1.69,0,3.22,0,4.33,0l1.31,0A2.44,2.44,0,0,1,54.26,437Z"/><path class="cls-10" d="M54.2,432c0,.23-2.74.39-6.11.41A35,35,0,0,1,42,432.2a38.67,38.67,0,0,1,6.12-.27c1.69,0,3.22,0,4.33,0l1.31,0A1.75,1.75,0,0,1,54.2,432Z"/><path class="cls-10" d="M54.34,427c0,.23-2.73.39-6.11.41a34.83,34.83,0,0,1-6.12-.25,38.67,38.67,0,0,1,6.12-.27c1.69,0,3.22,0,4.32,0l1.31,0A2,2,0,0,1,54.34,427Z"/><path class="cls-10" d="M54.08,422.07c0,.23-2.74.4-6.12.42a34.29,34.29,0,0,1-6.12-.26A38.67,38.67,0,0,1,48,422c1.69,0,3.22,0,4.33,0l1.31,0A2.57,2.57,0,0,1,54.08,422.07Z"/><path class="cls-10" d="M54.26,417.35c0,.23-2.74.4-6.11.42a36.2,36.2,0,0,1-6.13-.25,36,36,0,0,1,6.12-.27c1.69,0,3.22,0,4.33,0l1.31,0A2.44,2.44,0,0,1,54.26,417.35Z"/><path class="cls-9" d="M61.06,436.1s0,.16.06.5l0,.58-.18-.56a86.62,86.62,0,0,1-1.9-9.16c-.43-2.69-.73-5.13-.89-6.91a14.66,14.66,0,0,1-.13-2.89,18.89,18.89,0,0,1,.5,2.85c.25,1.76.6,4.19,1,6.87.69,4.34,1.39,8,1.55,9.2l-.16,0C61,436.26,61,436.1,61.06,436.1Z"/><path class="cls-9" d="M70.26,434.33A92.86,92.86,0,0,1,67,424.91a92.86,92.86,0,0,1-2.73-9.57,92.86,92.86,0,0,1,3.22,9.42A92.86,92.86,0,0,1,70.26,434.33Z"/><path class="cls-9" d="M81.12,429.74c-.12.07-2.26-4-4.77-9.06s-4.43-9.24-4.3-9.3a99.8,99.8,0,0,1,4.77,9.07A99.39,99.39,0,0,1,81.12,429.74Z"/><path class="cls-9" d="M90.76,422.54a91.87,91.87,0,0,1-6.18-7.91,98.59,98.59,0,0,1-5.77-8.23A95.09,95.09,0,0,1,85,414.32C88.29,418.78,90.87,422.46,90.76,422.54Z"/><path class="cls-9" d="M99.17,414.56a93.69,93.69,0,0,1-7.2-6.85,96.19,96.19,0,0,1-6.82-7.22,94.54,94.54,0,0,1,7.19,6.85A97.73,97.73,0,0,1,99.17,414.56Z"/><path class="cls-9" d="M106.09,405a15.28,15.28,0,0,1-2.5-1.34l-5.92-3.46-5.92-3.45a15.68,15.68,0,0,1-2.4-1.53,15.05,15.05,0,0,1,2.58,1.21c1.56.81,3.69,2,6,3.32s4.37,2.64,5.84,3.6A14.57,14.57,0,0,1,106.09,405Z"/><path class="cls-9" d="M110.79,395.28a13.82,13.82,0,0,1-2.43-1.09c-1.47-.72-3.51-1.71-5.77-2.76s-4.34-1.95-5.84-2.61a15.48,15.48,0,0,1-2.41-1.14,11.93,11.93,0,0,1,2.54.8c1.54.57,3.65,1.43,5.93,2.48s4.29,2.1,5.72,2.9A13.26,13.26,0,0,1,110.79,395.28Z"/><path class="cls-9" d="M116.39,385.9a13.82,13.82,0,0,1-2.77-.46c-1.7-.37-4-.94-6.58-1.68s-4.81-1.51-6.44-2.11A14.17,14.17,0,0,1,98,380.56a16.24,16.24,0,0,1,2.71.74c1.65.51,3.93,1.22,6.47,2s4.84,1.36,6.51,1.82A16.1,16.1,0,0,1,116.39,385.9Z"/><path class="cls-9" d="M119.38,376.44a84.06,84.06,0,0,1-9.25-.92,84.45,84.45,0,0,1-9.18-1.43,84.06,84.06,0,0,1,9.25.92A79,79,0,0,1,119.38,376.44Z"/><path class="cls-9" d="M122.56,367.19a12.64,12.64,0,0,1-2.69-.08c-1.66-.12-4-.32-6.47-.57s-4.81-.51-6.45-.73a13.79,13.79,0,0,1-2.66-.45,14.26,14.26,0,0,1,2.7.09c1.66.12,3.94.32,6.46.57s4.8.51,6.45.72A15.07,15.07,0,0,1,122.56,367.19Z"/><path class="cls-9" d="M125,358.23a92.12,92.12,0,0,1-9.64.56,86.39,86.39,0,0,1-9.65,0,92.12,92.12,0,0,1,9.64-.56A89.44,89.44,0,0,1,125,358.23Z"/><path class="cls-9" d="M126,350.91a13.17,13.17,0,0,1-2.64.41c-1.64.17-3.91.31-6.43.32s-4.79-.11-6.43-.26a13,13,0,0,1-2.64-.38,15.19,15.19,0,0,1,2.67,0c1.64.06,3.9.13,6.4.11s4.76-.1,6.4-.17A15,15,0,0,1,126,350.91Z"/><path class="cls-12" d="M109.75,346.82a.72.72,0,0,1,0,.25v.74c0,.65,0,1.61-.07,2.84A74,74,0,0,1,108.48,361a78.32,78.32,0,0,1-4.35,14.89,77.44,77.44,0,0,1-22,30.58,78.86,78.86,0,0,1-12.76,8.83,73.72,73.72,0,0,1-9.47,4.45c-1.14.46-2.06.74-2.67,1l-.71.23a.72.72,0,0,1-.24.06.7.7,0,0,1,.23-.11l.68-.28c.6-.25,1.51-.56,2.64-1A82.14,82.14,0,0,0,69.15,415a79.89,79.89,0,0,0,39-54,81.57,81.57,0,0,0,1.39-10.33c.11-1.22.11-2.18.16-2.83,0-.3,0-.54,0-.74A.87.87,0,0,1,109.75,346.82Z"/><path class="cls-11" d="M199.54,238.1S188.82,223.59,164,225.74c0,0,25.25-19.4,10.39-39.33,0,0,31.89,9.42,32.25-30.44,0,0,5.8,37,35.88,26.46,0,0,2.14,29.36,23,23.93-10.07,9.92-19.87,18.65-17.88,31.31"/><g class="cls-14"><path class="cls-12" d="M199.54,238.1S188.82,223.59,164,225.74c0,0,25.25-19.4,10.39-39.33,0,0,31.89,9.42,32.25-30.44,0,0,5.8,37,35.88,26.46,0,0,2.14,29.36,23,23.93-10.07,9.92-19.87,18.65-17.88,31.31"/></g><path class="cls-11" d="M199.54,238.1s-.25-16.92-20.18-15.19c0,0,18.53-10.69,6.6-26.7,0,0,25.62,7.57,25.91-24.45,0,0,4.65,29.69,28.81,21.25,0,0-2.88,21.54,13.85,17.17-8.09,8-11.37,17-9.77,27.2"/><g class="cls-15"><path class="cls-12" d="M199.54,238.1s-.25-16.92-20.18-15.19c0,0,18.53-10.69,6.6-26.7,0,0,25.62,7.57,25.91-24.45,0,0,4.65,29.69,28.81,21.25,0,0-2.88,21.54,13.85,17.17-8.09,8-11.37,17-9.77,27.2"/></g><path class="cls-11" d="M232.27,125.88a5.13,5.13,0,0,1-.24.63c-.21.45-.47,1-.79,1.76s-.77,1.69-1.22,2.8-1,2.33-1.51,3.74-1.13,2.93-1.68,4.6-1.12,3.46-1.7,5.35c-1.09,3.8-2.13,8-3,12.52s-1.29,8.82-1.6,12.76c-.11,2-.24,3.85-.26,5.61s-.05,3.4,0,4.89.08,2.85.12,4,.1,2.21.17,3,.09,1.43.12,1.92a3,3,0,0,1,0,.68,3.7,3.7,0,0,1-.11-.67c0-.49-.13-1.13-.21-1.92s-.2-1.85-.26-3-.18-2.55-.19-4-.08-3.14,0-4.91.11-3.65.22-5.63a113.18,113.18,0,0,1,4.57-25.39c.59-1.89,1.14-3.7,1.75-5.35s1.18-3.2,1.74-4.59,1.12-2.64,1.6-3.73.92-2,1.3-2.77l.87-1.72A3,3,0,0,1,232.27,125.88Z"/><path class="cls-11" d="M160.69,119a33.43,33.43,0,0,0-6-4.49,33.26,33.26,0,0,0-7.06-2.52,6.79,6.79,0,0,1,2.23.22,18.66,18.66,0,0,1,5.08,1.84,18.9,18.9,0,0,1,4.34,3.21A6.55,6.55,0,0,1,160.69,119Z"/><path class="cls-11" d="M168.37,162.54a2.34,2.34,0,0,1,.42.4l1.11,1.19c1,1,2.31,2.59,3.91,4.56s3.43,4.37,5.36,7.11,3.92,5.86,5.86,9.2,3.62,6.64,5.06,9.67,2.6,5.82,3.5,8.19,1.59,4.31,2,5.66l.49,1.56a2.26,2.26,0,0,1,.13.56,2.26,2.26,0,0,1-.23-.53c-.16-.4-.34-.9-.58-1.52-.47-1.33-1.2-3.25-2.15-5.59s-2.16-5.1-3.59-8.12-3.15-6.27-5.08-9.62-3.92-6.42-5.81-9.18-3.68-5.18-5.25-7.16-2.85-3.58-3.77-4.66l-1-1.25A2.44,2.44,0,0,1,168.37,162.54Z"/><path class="cls-11" d="M237.13,167.65a1.72,1.72,0,0,1-.21.46l-.67,1.25c-.31.54-.67,1.2-1.06,2s-.87,1.66-1.32,2.67c-1,2-2,4.42-3,7.16a76.79,76.79,0,0,0-4.16,18.47c-.27,2.9-.39,5.53-.38,7.74,0,1.1,0,2.1,0,3s.06,1.63.1,2.25.05,1,.07,1.42a1.73,1.73,0,0,1,0,.5,2.25,2.25,0,0,1-.09-.49c0-.38-.1-.85-.17-1.42s-.15-1.37-.19-2.25-.13-1.88-.13-3a71,71,0,0,1,.28-7.79A72.75,72.75,0,0,1,230.45,181a70.42,70.42,0,0,1,3.09-7.16c.47-1,1-1.87,1.39-2.65s.81-1.43,1.14-2,.56-.88.76-1.21S237.11,167.64,237.13,167.65Z"/><path class="cls-11" d="M256.77,171.53c.05.06-.83.71-2.16,1.87a36.84,36.84,0,0,0-8.52,10.7,26.43,26.43,0,0,1-1.35,2.53,11.4,11.4,0,0,1,1-2.7,30.44,30.44,0,0,1,3.68-5.9,30.11,30.11,0,0,1,4.93-4.91A11.07,11.07,0,0,1,256.77,171.53Z"/><path class="cls-11" d="M173.27,197a11,11,0,0,1,2.44,1.52,34.6,34.6,0,0,1,5.16,4.68,33.84,33.84,0,0,1,4.12,5.61,11.66,11.66,0,0,1,1.27,2.59,27.69,27.69,0,0,1-1.58-2.4,44,44,0,0,0-9.19-10.19A25.79,25.79,0,0,1,173.27,197Z"/><path class="cls-11" d="M168.2,187.73c-.08.14-2.12-1-4.88-1.7s-5.09-.71-5.09-.87a14.5,14.5,0,0,1,10,2.57Z"/><path class="cls-16" d="M147.63,156.43a6.82,6.82,0,0,1,.65-1.66l-.9-1.38,1.9-2,1.41.85a7.26,7.26,0,0,1,1.64-.71l.33-1.61,2.74-.05.39,1.61a6.75,6.75,0,0,1,1.65.65l1.39-.9,2,1.9-.86,1.41a6.31,6.31,0,0,1,.71,1.64l1.62.33,0,2.74-1.6.39a6.78,6.78,0,0,1-.66,1.65l.91,1.39-1.9,2-1.42-.86a6.25,6.25,0,0,1-1.63.71l-.34,1.62-2.73,0-.39-1.6a6.85,6.85,0,0,1-1.66-.66l-1.38.9-2-1.9.85-1.41a6.58,6.58,0,0,1-.7-1.63l-1.62-.34,0-2.73,1.61-.39Zm3.6,1.55a2.93,2.93,0,1,0,2.88-3A2.93,2.93,0,0,0,151.23,158Z"/><path class="cls-17" d="M262.19,230.32a4.77,4.77,0,0,1,.48-1.22l-.67-1,1.41-1.45,1,.63a5,5,0,0,1,1.2-.52l.25-1.19,2,0,.29,1.19a4.77,4.77,0,0,1,1.22.48l1-.67,1.45,1.41-.63,1a5.13,5.13,0,0,1,.52,1.2l1.19.25,0,2-1.18.29a5.17,5.17,0,0,1-.48,1.22l.66,1-1.4,1.45-1-.63a5,5,0,0,1-1.21.52l-.25,1.19-2,0-.29-1.18a5.17,5.17,0,0,1-1.22-.48l-1,.66-1.45-1.4.63-1a5,5,0,0,1-.52-1.21l-1.19-.25,0-2,1.19-.29Zm2.65,1.14a2.17,2.17,0,1,0,2.13-2.2A2.17,2.17,0,0,0,264.84,231.46Z"/><rect class="cls-2" x="236.8" y="147.22" width="10.43" height="4.72" transform="translate(3.05 304) rotate(-64.59)"/><path class="cls-9" d="M237.65,153.28a10.74,10.74,0,0,1,1.23.49c.76.32,1.82.78,3.11,1.36l-.25.09c1.12-2.45,2.67-5.79,4.41-9.45-.11-.31.15.43.12.35h-.07l-.07,0L246,146l-.27-.14-.56-.26-1.08-.52-2.06-1,.33-.11c-1.29,2.68-2.45,5-3.29,6.64l-1,1.95a4.56,4.56,0,0,1-.41.72,2.67,2.67,0,0,1,.25-.68c.24-.54.52-1.19.86-1.95.75-1.69,1.83-4.1,3.14-6.89l.11-.23.22.11,2.07,1,1.09.51.55.26.28.14.14.06.07,0h.07c0-.08.23.66.12.35-1.74,3.66-3.34,7-4.54,9.39l-.08.17-.17-.09c-1.34-.66-2.41-1.21-3.13-1.59A7.85,7.85,0,0,1,237.65,153.28Z"/><path class="cls-2" d="M246,140.87a4.34,4.34,0,0,0-5.79,2.06l7.86,3.74A4.36,4.36,0,0,0,246,140.87Z"/><path class="cls-9" d="M246,140.87s.18,0,.48.18a4.09,4.09,0,0,1,1.13.9,4.28,4.28,0,0,1,1,2,4.45,4.45,0,0,1-.32,2.83l-.09.22-.23-.1L244,145l-3.93-1.89-.22-.1.11-.22a4.54,4.54,0,0,1,2-2,4.4,4.4,0,0,1,2.17-.48,3.86,3.86,0,0,1,1.4.3c.31.14.45.24.44.26a8.49,8.49,0,0,0-1.85-.27,4.22,4.22,0,0,0-2,.55,4.16,4.16,0,0,0-1.76,1.89l-.11-.32,3.94,1.85,3.92,1.88-.32.12a4.27,4.27,0,0,0,.36-2.56,4.35,4.35,0,0,0-.83-1.88A8,8,0,0,0,246,140.87Z"/><path class="cls-2" d="M246.07,143.36a2.74,2.74,0,0,0-.86-2.8"/><path class="cls-9" d="M245.21,140.56c.07-.13.8.27,1.08,1.2s-.09,1.66-.22,1.6,0-.71-.27-1.45S245.12,140.68,245.21,140.56Z"/><path class="cls-9" d="M241.27,145.19a9,9,0,0,1,2.28.94,9.41,9.41,0,0,1,2.23,1.09,4.68,4.68,0,0,1-2.44-.62C242.06,146,241.19,145.3,241.27,145.19Z"/><path class="cls-9" d="M240.74,146.29a9.71,9.71,0,0,1,2.29,1,9.17,9.17,0,0,1,2.22,1.08,4.52,4.52,0,0,1-2.44-.61C241.54,147.14,240.66,146.41,240.74,146.29Z"/><path class="cls-9" d="M240.21,147.4a8.82,8.82,0,0,1,2.29.94,9.41,9.41,0,0,1,2.23,1.09,4.72,4.72,0,0,1-2.44-.61A4.81,4.81,0,0,1,240.21,147.4Z"/><path class="cls-9" d="M239.69,148.5a9.71,9.71,0,0,1,2.29.95,9.17,9.17,0,0,1,2.22,1.08,4.52,4.52,0,0,1-2.44-.61C240.49,149.35,239.61,148.62,239.69,148.5Z"/><path class="cls-9" d="M239.16,149.61a9.26,9.26,0,0,1,2.29.94,9.4,9.4,0,0,1,2.22,1.09,7.15,7.15,0,0,1-4.51-2Z"/><path class="cls-9" d="M238.64,150.72a9,9,0,0,1,2.29.94,9.21,9.21,0,0,1,2.22,1.09,7.23,7.23,0,0,1-4.51-2Z"/><path class="cls-9" d="M238.11,151.82a9.71,9.71,0,0,1,2.29,1,9.17,9.17,0,0,1,2.22,1.08,4.48,4.48,0,0,1-2.43-.61C238.91,152.67,238,151.94,238.11,151.82Z"/><rect class="cls-2" x="134.46" y="227.02" width="10.43" height="4.72" transform="translate(-82.28 78.18) rotate(-24.4)"/><path class="cls-9" d="M145.39,229.37a11.2,11.2,0,0,1-.62-1.17c-.37-.73-.89-1.77-1.5-3l.25.09c-2.44,1.15-5.78,2.7-9.46,4.37-.12.31.15-.42.12-.34h0v0l0,0,0,.07.06.14.13.28.25.56c.17.37.33.73.5,1.09l.93,2.09-.33-.12c2.73-1.22,5.09-2.23,6.8-3l2-.84a5,5,0,0,1,.78-.29,3,3,0,0,1-.63.36l-1.91.94c-1.66.8-4,2-6.85,3.24l-.23.1-.1-.23c-.31-.66-.62-1.36-.95-2.07-.17-.36-.33-.73-.5-1.1l-.25-.55-.13-.29-.07-.14,0-.07v-.05h0l.13-.34c3.69-1.68,7-3.17,9.53-4.24l.17-.08.08.17c.59,1.38,1,2.49,1.35,3.24A7,7,0,0,1,145.39,229.37Z"/><path class="cls-2" d="M131,233.48a4.35,4.35,0,0,0,5.76,2.17l-3.6-7.93A4.34,4.34,0,0,0,131,233.48Z"/><path class="cls-9" d="M131,233.48s-.12-.14-.26-.44a4.09,4.09,0,0,1-.27-1.42,4.34,4.34,0,0,1,.52-2.16,4.54,4.54,0,0,1,2.07-2l.22-.1.1.22c.57,1.23,1.18,2.56,1.82,4s1.22,2.73,1.78,4l.1.22-.22.1a4.52,4.52,0,0,1-2.84.26,4.28,4.28,0,0,1-2-1,3.9,3.9,0,0,1-.88-1.13c-.15-.31-.2-.48-.17-.49a7.9,7.9,0,0,0,1.23,1.4,4.26,4.26,0,0,0,4.43.55l-.12.32-1.82-4-1.78-4,.32.12a4.24,4.24,0,0,0-2.5,3.69A7.77,7.77,0,0,0,131,233.48Z"/><path class="cls-2" d="M132.56,231.52a2.74,2.74,0,0,0-1.15,2.69"/><path class="cls-9" d="M131.41,234.21c-.13.06-.44-.73-.06-1.61s1.15-1.21,1.21-1.08-.43.56-.73,1.28S131.56,234.18,131.41,234.21Z"/><path class="cls-9" d="M137.41,233.22c-.15.05-.56-1-1.14-2.19a9.38,9.38,0,0,1-1-2.27,4.65,4.65,0,0,1,1.47,2A4.75,4.75,0,0,1,137.41,233.22Z"/><path class="cls-9" d="M138.52,232.72a9.58,9.58,0,0,1-1.14-2.2,8.85,8.85,0,0,1-1-2.26c.11-.09.86.77,1.46,2A4.5,4.5,0,0,1,138.52,232.72Z"/><path class="cls-9" d="M139.64,232.21A8.79,8.79,0,0,1,138.5,230a9.38,9.38,0,0,1-1-2.27,4.65,4.65,0,0,1,1.47,2A4.75,4.75,0,0,1,139.64,232.21Z"/><path class="cls-9" d="M140.75,231.71a9.85,9.85,0,0,1-1.14-2.2,8.68,8.68,0,0,1-1-2.27,4.67,4.67,0,0,1,1.46,2A4.53,4.53,0,0,1,140.75,231.71Z"/><path class="cls-9" d="M141.87,231.2a9.14,9.14,0,0,1-1.14-2.2,9.4,9.4,0,0,1-1-2.26,4.65,4.65,0,0,1,1.47,2A4.73,4.73,0,0,1,141.87,231.2Z"/><path class="cls-9" d="M143,230.69a9.37,9.37,0,0,1-1.14-2.19,9.57,9.57,0,0,1-1-2.27,4.67,4.67,0,0,1,1.46,2A4.52,4.52,0,0,1,143,230.69Z"/><path class="cls-9" d="M144.1,230.19A9.14,9.14,0,0,1,143,228a9.59,9.59,0,0,1-1-2.26c.11-.09.87.77,1.47,2A4.61,4.61,0,0,1,144.1,230.19Z"/><path class="cls-11" d="M164.14,107.5s12.11,12,15.13,19.43c2.87,7.11,4.77,13.73,4.77,13.73s3.12-5.46,6.63,0,20.1,71.77,22.83,96.73h10.57s-4.93-41.73-7.27-46.41-4.29-6.24-4.29-6.24-2.73-17.56-4.68-20.29a13.16,13.16,0,0,0-4.29-3.9s-3.51-19.11-8.58-23-9-1.95-9-1.95S182.76,115.15,164.14,107.5Z"/><path class="cls-10" d="M263.29,196.08a55.81,55.81,0,0,0-7,2.38,58.26,58.26,0,0,0-6.41,3.72,6.81,6.81,0,0,1,1.62-1.48,24.09,24.09,0,0,1,9.62-4.37A7.24,7.24,0,0,1,263.29,196.08Z"/><path class="cls-10" d="M262.88,194a71.6,71.6,0,0,0-7.06,3.13,75.34,75.34,0,0,0-6.39,4.32,7.79,7.79,0,0,1,1.6-1.63,28,28,0,0,1,4.54-3.14,26.89,26.89,0,0,1,5.07-2.18A7.81,7.81,0,0,1,262.88,194Z"/><path class="cls-10" d="M260.83,199.09c0,.16-2.2.19-4.79.94s-4.49,1.85-4.57,1.72a13.27,13.27,0,0,1,9.36-2.66Z"/><path class="cls-9" d="M237.5,237.29c-1.77-14,2.83-30.42,14-38.28l2.66,2.17s-13.91,8.28-12.89,36.21"/><path class="cls-10" d="M180,217.12a33.58,33.58,0,0,0-5.37,2.39,34.87,34.87,0,0,0-4.56,3.71,13.8,13.8,0,0,1,9.93-6.1Z"/><path class="cls-10" d="M179.75,215.88a51.19,51.19,0,0,1-5.44,2.1,51.75,51.75,0,0,1-5.5,2,24.23,24.23,0,0,1,5.32-2.46A23.63,23.63,0,0,1,179.75,215.88Z"/><path class="cls-9" d="M210.56,240.74l-4.84-1.26a11,11,0,0,0-1.3-8.48,10.79,10.79,0,0,0-2.35-2.65,9.21,9.21,0,0,1-5.31,7.13,7.86,7.86,0,0,1-6.65-.42,6.9,6.9,0,0,1-3.63-4.72,7.86,7.86,0,0,1,3.87-8,9.8,9.8,0,0,1,3.66-1.24,3.51,3.51,0,0,0-.36-.29,13.38,13.38,0,0,0-15.08-.41l-2.82-4.13a18.33,18.33,0,0,1,20.94.56A14.92,14.92,0,0,1,201,222a15.83,15.83,0,0,1,9.52,18.72ZM195.66,226a5.35,5.35,0,0,0-2.76.67,2.91,2.91,0,0,0-1.52,2.75,2.08,2.08,0,0,0,1.09,1.29,2.93,2.93,0,0,0,2.37.2,4.5,4.5,0,0,0,2.32-4.58l0-.2A8.44,8.44,0,0,0,195.66,226Z"/><path class="cls-11" d="M170,147.88a8.31,8.31,0,0,1,1.34.71c.85.48,2,1.24,3.48,2.23a61.07,61.07,0,0,1,4.85,3.78,67.31,67.31,0,0,1,5.37,5.26,65.31,65.31,0,0,1,4.7,5.88,58.32,58.32,0,0,1,3.27,5.19c.85,1.53,1.49,2.79,1.88,3.69a8.79,8.79,0,0,1,.57,1.4,8,8,0,0,1-.75-1.31c-.45-.87-1.13-2.1-2-3.59s-2-3.24-3.34-5.11a67.21,67.21,0,0,0-10-11c-1.73-1.51-3.34-2.81-4.74-3.84s-2.56-1.83-3.38-2.36A8.61,8.61,0,0,1,170,147.88Z"/><path class="cls-9" d="M153,259.3h.85a0,0,0,0,1,0,0v50.51a0,0,0,0,1,0,0H153a9,9,0,0,1-9-9V268.26A9,9,0,0,1,153,259.3Z"/><path class="cls-9" d="M298.49,259.3h.94a8.88,8.88,0,0,1,8.88,8.88v32.76a8.88,8.88,0,0,1-8.88,8.88h-.94a0,0,0,0,1,0,0V259.3A0,0,0,0,1,298.49,259.3Z"/><rect class="cls-11" x="151.31" y="249.44" width="149.39" height="109.99" rx="14.12"/><path class="cls-12" d="M245,261.13a34.22,34.22,0,0,0-34.23,34.23h68.47A34.23,34.23,0,0,0,245,261.13Z"/><path class="cls-2" d="M272.59,293.7c1.44,0,2.74,0,3.68,0a6.73,6.73,0,0,1,1.53.1,7.91,7.91,0,0,1-1.53.11c-.94,0-2.24,0-3.68,0l-3.68,0-1.12,0a1.75,1.75,0,0,1-.41,0,1.26,1.26,0,0,1,.41,0l1.12-.05Z"/><path class="cls-2" d="M270.2,283.35c2.6-1.24,4.76-2.11,4.83-2s-2,1.24-4.62,2.41a34.84,34.84,0,0,1-4.83,2A34.26,34.26,0,0,1,270.2,283.35Z"/><path class="cls-2" d="M263.78,274.89c1.9-2.16,3.54-3.82,3.67-3.71s-1.35,1.93-3.29,4.05a33.89,33.89,0,0,1-3.67,3.7A34.86,34.86,0,0,1,263.78,274.89Z"/><path class="cls-2" d="M254.62,269.48c1-2.71,1.89-4.85,2.05-4.79s-.54,2.28-1.58,5a34.94,34.94,0,0,1-2.05,4.79A34.19,34.19,0,0,1,254.62,269.48Z"/><path class="cls-2" d="M244.13,267.7c0-2.88.08-5.21.25-5.21s.28,2.33.26,5.21a33.85,33.85,0,0,1-.26,5.21A33.18,33.18,0,0,1,244.13,267.7Z"/><path class="cls-2" d="M233.66,269.66c-1-2.69-1.73-4.91-1.57-5s1.08,2.08,2,4.79a33.77,33.77,0,0,1,1.58,5A35.67,35.67,0,0,1,233.66,269.66Z"/><path class="cls-2" d="M224.6,275.23c-1.95-2.12-3.42-3.93-3.29-4.05s1.77,1.55,3.67,3.71a34.86,34.86,0,0,1,3.29,4A32.88,32.88,0,0,1,224.6,275.23Z"/><path class="cls-2" d="M218.34,283.82c-2.62-1.18-4.69-2.26-4.62-2.42s2.24.72,4.84,2a35.13,35.13,0,0,1,4.62,2.41A35.29,35.29,0,0,1,218.34,283.82Z"/><path class="cls-2" d="M216.17,294c-1.44,0-2.74,0-3.69,0a7.86,7.86,0,0,1-1.52-.11,6.67,6.67,0,0,1,1.52-.1c1,0,2.25,0,3.69,0l3.68.06,1.11.05a1.2,1.2,0,0,1,.41,0,1.65,1.65,0,0,1-.41,0l-1.11,0Z"/><path class="cls-12" d="M187.93,267.12a4.55,4.55,0,1,1-4.55-4.54A4.55,4.55,0,0,1,187.93,267.12Z"/><path class="cls-10" d="M187.93,280.82a4.55,4.55,0,1,1-4.55-4.54A4.55,4.55,0,0,1,187.93,280.82Z"/><path class="cls-9" d="M274.05,349.94s0-.29,0-.85,0-1.39,0-2.45c0-2.17,0-5.32-.05-9.38,0-8.13-.06-19.85-.1-34.3l.19.19-93.17.07h0l.26-.26c0,16.57,0,32.46,0,47l-.24-.24,66.91.11,19.31.07,5.16,0,1.34,0h.46l-.43,0h-1.31l-5.11,0-19.25.07-67.08.12h-.25v-.25c0-14.52,0-30.41,0-47v-.26h.27l93.17.07h.2V303c0,14.5-.07,26.26-.1,34.41,0,4,0,7.19-.05,9.34,0,1.05,0,1.86,0,2.42S274.05,349.94,274.05,349.94Z"/><path class="cls-9" d="M166.72,359.21H285.28a0,0,0,0,1,0,0v.59a6.23,6.23,0,0,1-6.23,6.23H173a6.23,6.23,0,0,1-6.23-6.23v-.59A0,0,0,0,1,166.72,359.21Z"/><g class="cls-13"><path d="M264.08,309.55a2.83,2.83,0,0,0,1.94,3,3.11,3.11,0,0,0,3.39-1.24,3.49,3.49,0,0,0,0-3.67,3.48,3.48,0,0,1-.78,2.35,2.57,2.57,0,0,1-2.26.88,2,2,0,0,1-1.69-1.64"/></g><path class="cls-2" d="M269.43,308.44a2.77,2.77,0,1,1-2.76-2.76A2.76,2.76,0,0,1,269.43,308.44Z"/><path class="cls-9" d="M269.43,308.44a3.69,3.69,0,0,1-.18-.65,2.78,2.78,0,0,0-1-1.4,2.61,2.61,0,0,0-2.42-.32,2.53,2.53,0,0,0,0,4.74,2.61,2.61,0,0,0,2.42-.32,2.78,2.78,0,0,0,1-1.4,4.08,4.08,0,0,1,.18-.65s.09.25,0,.7a2.7,2.7,0,0,1-1,1.64,2.92,2.92,0,0,1-2.81.48,3,3,0,0,1,0-5.64,2.92,2.92,0,0,1,2.81.48,2.7,2.7,0,0,1,1,1.64C269.52,308.19,269.46,308.44,269.43,308.44Z"/><path class="cls-9" d="M267.94,307.26c.05.14-.6.48-1.21,1.12s-.93,1.29-1.08,1.24,0-.87.71-1.61S267.91,307.12,267.94,307.26Z"/><path class="cls-9" d="M267.94,309.3c-.12.08-.58-.42-1.26-.87s-1.32-.7-1.29-.85.8-.11,1.58.42S268.06,309.24,267.94,309.3Z"/><g class="cls-13"><path d="M265.38,343.75a2.83,2.83,0,0,0,1.94,3,3.11,3.11,0,0,0,3.39-1.24,3.49,3.49,0,0,0,.05-3.66,3.43,3.43,0,0,1-.79,2.34,2.55,2.55,0,0,1-2.25.88,2,2,0,0,1-1.7-1.63"/></g><circle class="cls-2" cx="267.96" cy="342.63" r="2.76"/><path class="cls-9" d="M270.73,342.63c-.05,0-.06-.24-.19-.65a2.71,2.71,0,0,0-1-1.4,2.61,2.61,0,0,0-2.42-.32,2.54,2.54,0,1,0,2.42,4.42,2.67,2.67,0,0,0,1-1.4c.13-.4.14-.65.19-.65a1.33,1.33,0,0,1,0,.7,2.79,2.79,0,0,1-1,1.65,2.93,2.93,0,0,1-2.81.47,3,3,0,0,1,0-5.64,3,3,0,0,1,2.81.48,2.8,2.8,0,0,1,1,1.64A1.29,1.29,0,0,1,270.73,342.63Z"/><path class="cls-9" d="M269.24,341.45c.05.14-.61.48-1.21,1.12s-.93,1.29-1.08,1.25,0-.88.7-1.61S269.21,341.32,269.24,341.45Z"/><path class="cls-9" d="M269.24,343.49c-.13.09-.59-.42-1.27-.87s-1.31-.7-1.28-.85.8-.11,1.58.42S269.36,343.43,269.24,343.49Z"/><g class="cls-13"><path d="M185,309.51a2.83,2.83,0,0,0,1.94,3,3.12,3.12,0,0,0,3.39-1.25,3.49,3.49,0,0,0,0-3.66,3.45,3.45,0,0,1-.79,2.35,2.55,2.55,0,0,1-2.25.88,2,2,0,0,1-1.7-1.64"/></g><circle class="cls-2" cx="187.58" cy="308.4" r="2.76"/><path class="cls-9" d="M190.35,308.4s-.06-.25-.19-.65a2.67,2.67,0,0,0-1-1.4,2.61,2.61,0,0,0-2.42-.32,2.53,2.53,0,0,0,0,4.74,2.61,2.61,0,0,0,2.42-.32,2.67,2.67,0,0,0,1-1.4c.13-.4.14-.65.19-.65a1.33,1.33,0,0,1,0,.7,2.8,2.8,0,0,1-1,1.64,2.93,2.93,0,0,1-2.81.48,3,3,0,0,1,0-5.64,2.93,2.93,0,0,1,2.81.48,2.8,2.8,0,0,1,1,1.64A1.33,1.33,0,0,1,190.35,308.4Z"/><path class="cls-9" d="M188.86,307.22c0,.14-.61.48-1.21,1.12s-.94,1.29-1.08,1.24,0-.88.7-1.61S188.83,307.08,188.86,307.22Z"/><path class="cls-9" d="M188.86,309.26c-.13.08-.59-.42-1.27-.87s-1.31-.7-1.28-.85.8-.11,1.57.41S189,309.19,188.86,309.26Z"/><g class="cls-13"><path d="M184.41,343.41a2.82,2.82,0,0,0,1.94,3,3.11,3.11,0,0,0,3.39-1.24,3.47,3.47,0,0,0,0-3.66,3.47,3.47,0,0,1-.78,2.34,2.58,2.58,0,0,1-2.26.89,2,2,0,0,1-1.69-1.64"/></g><circle class="cls-2" cx="187" cy="342.29" r="2.76"/><path class="cls-9" d="M189.76,342.29s-.06-.24-.18-.65a2.87,2.87,0,0,0-1-1.4,2.61,2.61,0,0,0-2.42-.32,2.54,2.54,0,1,0,2.42,4.42,2.78,2.78,0,0,0,1-1.4,4.08,4.08,0,0,1,.18-.65s.09.25,0,.7a2.72,2.72,0,0,1-1,1.65,3,3,0,0,1-2.81.48,3,3,0,0,1,0-5.65,3,3,0,0,1,2.81.48,2.72,2.72,0,0,1,1,1.65C189.85,342.05,189.79,342.3,189.76,342.29Z"/><path class="cls-9" d="M188.27,341.11c0,.14-.6.48-1.21,1.12s-.93,1.29-1.08,1.25,0-.88.71-1.61S188.24,341,188.27,341.11Z"/><path class="cls-9" d="M188.27,343.16c-.12.08-.58-.43-1.26-.88s-1.32-.7-1.29-.85.8-.11,1.58.42S188.39,343.09,188.27,343.16Z"/><g class="cls-13"><path d="M180.87,350.2c10.82,2.35,23.46,2.44,35.15,1.87,5.62-.28,11.79-.63,16.29,2.76,1,.74,2.14,1.71,3.3,1.28,1.68-.63,1.74-3.71,3.54-3.77.9,0,1.58.83,1.88,1.68a13,13,0,0,0,.82,2.56c.46.78,1.55,1.3,2.27.75,1.14-.87-.18-2.74.25-4.11s2.47-1.53,3.85-1,2.72,1.54,4.19,1.32a8.19,8.19,0,0,0,2.83-1.45c2.63-1.61,5.88-1.7,9-1.76,3.25-.05,6.6-.36,9.85-.42Z"/></g><path class="cls-9" d="M255.39,314.91a2.22,2.22,0,0,1-.51.18,11.73,11.73,0,0,0-1.45.49,22,22,0,0,0-4.88,2.76c-2,1.36-4.1,3.24-6.83,4.9a15.6,15.6,0,0,1-4.63,1.93,26.2,26.2,0,0,1-5.34.4c-3.65,0-6.84,1.48-9.6,3s-5.29,2.84-7.26,4.17a26.22,26.22,0,0,0-4.34,3.56c-.93,1-1.37,1.55-1.4,1.52s.08-.16.28-.45a14,14,0,0,1,1-1.21,23.79,23.79,0,0,1,4.28-3.72,78,78,0,0,1,7.24-4.3,33.09,33.09,0,0,1,4.52-2.1,15.5,15.5,0,0,1,5.29-.95,26.23,26.23,0,0,0,5.25-.38,15.77,15.77,0,0,0,4.5-1.84c2.68-1.61,4.87-3.46,6.86-4.79a20.61,20.61,0,0,1,5-2.65,8.71,8.71,0,0,1,1.49-.4A2.62,2.62,0,0,1,255.39,314.91Z"/><path class="cls-9" d="M231.68,322.83a13,13,0,0,1-2.9-.45,44.09,44.09,0,0,1-13.12-5.26,12.48,12.48,0,0,1-2.4-1.69,25.49,25.49,0,0,1,2.59,1.37,59.77,59.77,0,0,0,13,5.23A21,21,0,0,1,231.68,322.83Z"/><path class="cls-11" d="M246.72,290.19c.77-.41,23.24-7.64,23.24-7.64l-21.48,12Z"/><path class="cls-9" d="M244.38,287.76a7.6,7.6,0,0,0-7.6,7.6H252A7.61,7.61,0,0,0,244.38,287.76Z"/><path class="cls-9" d="M168,359.21c-.15,0-.26-24.42-.26-54.54s.11-54.55.26-54.55.26,24.42.26,54.55S168.11,359.21,168,359.21Z"/><path class="cls-9" d="M286.81,359.21c-.14,0-.26-24.42-.26-54.54s.12-54.55.26-54.55.27,24.42.27,54.55S287,359.21,286.81,359.21Z"/><circle class="cls-9" cx="162.98" cy="263.75" r="1.17"/><circle class="cls-9" cx="162.98" cy="285.63" r="1.17"/><circle class="cls-9" cx="162.98" cy="307.52" r="1.17"/><circle class="cls-9" cx="162.98" cy="329.41" r="1.17"/><circle class="cls-9" cx="162.98" cy="351.29" r="1.17"/><circle class="cls-9" cx="292.93" cy="263.75" r="1.17"/><circle class="cls-9" cx="292.93" cy="285.63" r="1.17"/><circle class="cls-9" cx="292.93" cy="307.52" r="1.17"/><circle class="cls-9" cx="292.93" cy="329.41" r="1.17"/><circle class="cls-9" cx="292.93" cy="351.29" r="1.17"/><rect class="cls-10" x="196.92" y="237.39" width="51.1" height="12.04"/><path class="cls-9" d="M200.61,249.44a32.12,32.12,0,0,1-.26-5.82,32,32,0,0,1,.26-5.81,33.09,33.09,0,0,1,.26,5.81A33.25,33.25,0,0,1,200.61,249.44Z"/><path class="cls-9" d="M205.85,249.44a33.25,33.25,0,0,1-.26-5.82,33.09,33.09,0,0,1,.26-5.81,32,32,0,0,1,.26,5.81A32.12,32.12,0,0,1,205.85,249.44Z"/><path class="cls-9" d="M211.1,249.44a33.25,33.25,0,0,1-.26-5.82,33.09,33.09,0,0,1,.26-5.81,33.09,33.09,0,0,1,.26,5.81A33.25,33.25,0,0,1,211.1,249.44Z"/><path class="cls-9" d="M216.35,249.44a32.12,32.12,0,0,1-.26-5.82,32,32,0,0,1,.26-5.81,33.09,33.09,0,0,1,.26,5.81A33.25,33.25,0,0,1,216.35,249.44Z"/><path class="cls-9" d="M221.59,249.44a33.25,33.25,0,0,1-.26-5.82,33.09,33.09,0,0,1,.26-5.81,32,32,0,0,1,.26,5.81A32.12,32.12,0,0,1,221.59,249.44Z"/><path class="cls-9" d="M226.84,249.44a33.25,33.25,0,0,1-.26-5.82,33.09,33.09,0,0,1,.26-5.81,33.09,33.09,0,0,1,.26,5.81A33.25,33.25,0,0,1,226.84,249.44Z"/><path class="cls-9" d="M232.09,249.44a32.12,32.12,0,0,1-.26-5.82,32,32,0,0,1,.26-5.81,33.09,33.09,0,0,1,.26,5.81A33.25,33.25,0,0,1,232.09,249.44Z"/><path class="cls-9" d="M237.33,249.44a33.25,33.25,0,0,1-.26-5.82,33.09,33.09,0,0,1,.26-5.81,32,32,0,0,1,.26,5.81A32.12,32.12,0,0,1,237.33,249.44Z"/><path class="cls-9" d="M242.58,249.44a33.25,33.25,0,0,1-.26-5.82,33.09,33.09,0,0,1,.26-5.81,33.09,33.09,0,0,1,.26,5.81A33.25,33.25,0,0,1,242.58,249.44Z"/><g class="cls-13"><path d="M308.3,275.54c1.24,6.26,2.39,12.16,3.62,18.42a26.7,26.7,0,0,1-3.62,0c0-6,0-12.41,0-18.41"/></g><path class="cls-12" d="M154.76,261.17c.15,0,0,18.68-.34,41.71s-.71,41.7-.86,41.7,0-18.67.34-41.71S154.62,261.17,154.76,261.17Z"/><path class="cls-12" d="M176.51,347.15c-.15,0-.26-9.3-.26-20.77s.11-20.77.26-20.77.26,9.3.26,20.77S176.65,347.15,176.51,347.15Z"/><path class="cls-12" d="M274.72,252.8c0,.15-22.93.26-51.2.26s-51.2-.11-51.2-.26,22.92-.26,51.2-.26S274.72,252.66,274.72,252.8Z"/></g><g id="Floor"><path class="cls-9" d="M425.24,440.28c0,.14-95.2.26-212.61.26S0,440.42,0,440.28,95.18,440,212.63,440,425.24,440.13,425.24,440.28Z"/></g></g></svg>